<?xml version="1.0" encoding="iso-8859-1"?>
<!-- Generator: Adobe Illustrator 19.0.0, SVG Export Plug-In . SVG Version: 6.00 Build 0)  -->
<svg version="1.1" id="Capa_1" xmlns="http://www.w3.org/2000/svg" xmlns:xlink="http://www.w3.org/1999/xlink" x="0px" y="0px"
	 viewBox="0 0 512 512" style="enable-background:new 0 0 512 512;" xml:space="preserve">
<circle style="fill:#F7F0E6;" cx="256" cy="256" r="256"/>
<circle style="fill:#EEE2D4;" cx="237.43" cy="274.57" r="123.59"/>
<circle style="fill:#FF8782;" cx="379.59" cy="170.76" r="26.483"/>
<path style="fill:#FF6464;" d="M392.828,184c-14.626,0-26.483-11.857-26.483-26.483c0-3.881,0.881-7.539,2.381-10.86
	c-9.196,4.152-15.622,13.357-15.622,24.102c0,14.626,11.857,26.483,26.483,26.483c10.745,0,19.949-6.427,24.102-15.622
	C400.367,183.119,396.709,184,392.828,184z"/>
<circle style="fill:#FF8782;" cx="132.41" cy="340.23" r="26.483"/>
<path style="fill:#FF6464;" d="M145.655,353.471c-14.626,0-26.483-11.857-26.483-26.483c0-3.881,0.881-7.539,2.381-10.86
	c-9.196,4.152-15.622,13.357-15.622,24.102c0,14.626,11.857,26.483,26.483,26.483c10.745,0,19.949-6.427,24.102-15.622
	C153.194,352.591,149.536,353.471,145.655,353.471z"/>
<g>
	<path style="fill:#87CD6E;" d="M133.138,269.241c-4.259,0-8.009-3.086-8.707-7.431c-13.819-85.983,35.112-133.793,37.198-135.784
		c3.517-3.362,9.121-3.241,12.483,0.293c3.362,3.526,3.233,9.103-0.284,12.466c-1.888,1.828-44.241,43.836-31.966,120.233
		c0.776,4.81-2.5,9.336-7.319,10.112C134.069,269.207,133.603,269.241,133.138,269.241z"/>
	<path style="fill:#87CD6E;" d="M344.284,388.414c-2.759,0-5.466-1.284-7.19-3.698c-2.828-3.957-1.922-9.448,2.017-12.284l0,0
		c1.853-1.353,45.216-33.966,29.086-109.06c-1.026-4.767,2.009-9.457,6.776-10.483c4.75-1.043,9.457,2.017,10.483,6.776
		c18.655,86.879-33.81,125.5-36.052,127.103C347.853,387.879,346.06,388.414,344.284,388.414z"/>
</g>
<circle style="fill:#FF8782;" cx="97.1" cy="291.31" r="35.31"/>
<path style="fill:#FF6464;" d="M114.759,308.966c-19.502,0-35.31-15.809-35.31-35.31c0-5.175,1.175-10.052,3.175-14.481
	c-12.261,5.537-20.83,17.809-20.83,32.136c0,19.501,15.809,35.31,35.31,35.31c14.327,0,26.599-8.569,32.136-20.829
	C124.811,307.791,119.933,308.966,114.759,308.966z"/>
<circle style="fill:#FF8782;" cx="414.9" cy="220.69" r="35.31"/>
<g>
	<path style="fill:#ADDF6E;" d="M158.534,325.147c-2.905,0-5.75-1.431-7.431-4.052c-70.75-109.983-53.44-171.043-52.672-173.586
		c1.414-4.655,6.328-7.31,11.009-5.888c4.647,1.405,7.276,6.302,5.905,10.948c-0.267,0.957-14.897,57.147,50.603,158.974
		c2.638,4.103,1.457,9.56-2.647,12.198C161.828,324.69,160.172,325.147,158.534,325.147z"/>
	<path style="fill:#ADDF6E;" d="M406.069,370.759c-4.871,0-8.819-3.948-8.828-8.819c0-0.776-0.543-77.629-39.362-136.388
		c-2.69-4.06-1.569-9.543,2.5-12.224c4.043-2.69,9.534-1.586,12.224,2.5c41.81,63.276,42.293,142.75,42.293,146.103
		c0,4.871-3.948,8.819-8.819,8.828C406.069,370.759,406.069,370.759,406.069,370.759z"/>
</g>
<path style="fill:#CDE16E;" d="M233.388,100.414c-0.241,0-0.491-0.009-0.741-0.034l-6.621-0.552
	c-4.862-0.405-8.466-4.664-8.06-9.526c0.397-4.853,4.552-8.56,9.526-8.06l6.621,0.552c4.862,0.405,8.466,4.664,8.06,9.526
	C241.793,96.931,237.931,100.414,233.388,100.414z"/>
<path style="fill:#ADDF6E;" d="M288,97.103c-2.259,0-4.517-0.862-6.241-2.586c-3.448-3.448-3.448-9.034,0-12.483l7.724-7.724
	c3.448-3.448,9.034-3.448,12.483,0c3.448,3.448,3.448,9.034,0,12.483l-7.724,7.724C292.517,96.241,290.259,97.103,288,97.103z"/>
<g>
	<path style="fill:#CDE16E;" d="M311.181,118.621c-2.922,0-5.776-1.448-7.457-4.086c-2.621-4.112-1.405-9.569,2.707-12.19
		l6.069-3.862c4.129-2.612,9.578-1.397,12.19,2.707c2.621,4.112,1.405,9.569-2.707,12.19l-6.069,3.862
		C314.44,118.172,312.802,118.621,311.181,118.621z"/>
	<path style="fill:#CDE16E;" d="M187.026,438.621c-1.681,0-3.379-0.483-4.888-1.483c-4.06-2.707-5.155-8.181-2.448-12.241
		l2.207-3.31c2.698-4.06,8.172-5.147,12.241-2.448c4.06,2.707,5.155,8.181,2.448,12.241l-2.207,3.31
		C192.681,437.241,189.879,438.621,187.026,438.621z"/>
</g>
<path style="fill:#ADDF6E;" d="M267.043,445.793c-2.784,0-5.526-1.31-7.241-3.767l-5.147-7.353c-2.793-3.991-1.819-9.5,2.172-12.293
	c4-2.793,9.5-1.828,12.293,2.172l5.147,7.353c2.793,3.991,1.819,9.5-2.172,12.293C270.552,445.276,268.793,445.793,267.043,445.793z
	"/>
<path style="fill:#CDE16E;" d="M285.431,417.836c-2.853,0-5.655-1.379-7.353-3.931c-2.707-4.06-1.603-9.543,2.448-12.241l4.414-2.94
	c4.06-2.707,9.534-1.612,12.241,2.448s1.603,9.543-2.448,12.241l-4.414,2.94C288.81,417.353,287.112,417.836,285.431,417.836z"/>
<circle style="fill:#FBE6A5;" cx="256" cy="256" r="123.59"/>
<path style="fill:#FFDC8C;" d="M286.897,348.69c-68.255,0-123.586-55.331-123.586-123.586c0-26.233,8.231-50.512,22.17-70.52
	c-32.049,22.329-53.066,59.395-53.066,101.416c0,68.255,55.331,123.586,123.586,123.586c42.022,0,79.088-21.017,101.416-53.066
	C337.409,340.459,313.13,348.69,286.897,348.69z"/>
<path style="fill:#FFCD6E;" d="M291.31,203.034c0-4.879-3.948-8.828-8.828-8.828s-8.828,3.948-8.828,8.828
	c0,11.958-8.016,21.971-18.92,25.249c-4.58-19.485-22.012-34.077-42.873-34.077c-4.879,0-8.828,3.948-8.828,8.828
	c0,4.879,3.948,8.828,8.828,8.828c14.603,0,26.483,11.879,26.483,26.483c0,14.603-11.879,26.483-26.483,26.483
	c-4.879,0-8.828,3.948-8.828,8.828c0,4.879,3.948,8.828,8.828,8.828c21.591,0,39.537-15.609,43.328-36.121
	C275.701,242.571,291.31,224.626,291.31,203.034z"/>
<g>
	<path style="fill:#87CD6E;" d="M207.457,246.44c-0.716,0-1.44-0.086-2.164-0.267l-2.94-0.741c-4.733-1.19-7.595-5.991-6.405-10.716
		c1.19-4.741,5.983-7.603,10.716-6.405l2.94,0.741c4.733,1.19,7.595,5.991,6.405,10.716C215,243.776,211.405,246.44,207.457,246.44z
		"/>
	<path style="fill:#87CD6E;" d="M230.25,176.552c-2.259,0-4.517-0.862-6.241-2.586l-2.207-2.207c-3.448-3.448-3.448-9.034,0-12.483
		s9.034-3.448,12.483,0l2.207,2.207c3.448,3.448,3.448,9.034,0,12.483C234.767,175.69,232.509,176.552,230.25,176.552z"/>
</g>
<path style="fill:#ADDF6E;" d="M322.931,201.56c-1.328,0-2.672-0.302-3.94-0.931l-4.414-2.207
	c-4.362-2.181-6.129-7.483-3.948-11.845c2.19-4.362,7.474-6.121,11.845-3.948l4.414,2.207c4.362,2.181,6.129,7.483,3.948,11.845
	C329.284,199.776,326.172,201.56,322.931,201.56z"/>
<path style="fill:#87CD6E;" d="M295.716,258.94c-1.681,0-3.388-0.483-4.897-1.483c-4.052-2.716-5.147-8.198-2.44-12.25l1.474-2.207
	c2.707-4.043,8.181-5.138,12.25-2.44c4.052,2.716,5.147,8.198,2.44,12.25l-1.474,2.207
	C301.362,257.56,298.569,258.94,295.716,258.94z"/>
<path style="fill:#ADDF6E;" d="M186.103,303.819c-1.681,0-3.388-0.483-4.897-1.483L179,300.862c-4.052-2.716-5.147-8.198-2.44-12.25
	c2.707-4.043,8.181-5.138,12.25-2.44l2.207,1.474c4.052,2.716,5.147,8.198,2.44,12.25
	C191.75,302.44,188.957,303.819,186.103,303.819z"/>
<path style="fill:#87CD6E;" d="M255.259,301.612c-1.319,0-2.655-0.293-3.922-0.922c-4.362-2.172-6.147-7.466-3.974-11.836
	l1.466-2.948c2.164-4.362,7.448-6.147,11.836-3.974c4.362,2.172,6.147,7.466,3.974,11.836l-1.466,2.948
	C261.629,299.819,258.509,301.612,255.259,301.612z"/>
<g>
	<path style="fill:#ADDF6E;" d="M288.362,339.129c-3.948,0-7.552-2.672-8.552-6.681l-1.474-5.888
		c-1.19-4.733,1.69-9.526,6.414-10.707s9.526,1.681,10.707,6.414l1.474,5.888c1.19,4.733-1.69,9.526-6.414,10.707
		C289.793,339.043,289.078,339.129,288.362,339.129z"/>
	<path style="fill:#ADDF6E;" d="M181.707,219.957c-0.578,0-1.164-0.052-1.75-0.172c-4.784-0.966-7.879-5.621-6.914-10.397
		l0.741-3.681c0.957-4.784,5.621-7.905,10.397-6.914c4.784,0.966,7.879,5.621,6.914,10.397l-0.741,3.681
		C189.509,217.06,185.828,219.957,181.707,219.957z"/>
</g>
<g>
	<path style="fill:#FFDC8C;" d="M374.989,222.976c-2.822-10.185-6.891-19.827-12.073-28.773c2.287,7.889,0.432,16.737-5.769,22.943
		c-9.069,9.069-23.828,9.069-32.897,0c-3.448-3.448-9.034-3.448-12.483,0c-3.448,3.448-3.448,9.034,0,12.483
		c7.974,7.974,18.448,11.966,28.922,11.966c10.483,0,20.966-3.991,28.94-11.966C371.69,227.567,373.461,225.329,374.989,222.976z"/>
	<path style="fill:#FFDC8C;" d="M254.528,132.488c6.954,0.39,12.506,6.117,12.506,13.167c0,7.302-5.94,13.241-13.241,13.241
		c-4.879,0-8.828,3.948-8.828,8.828c0,4.879,3.948,8.828,8.828,8.828c17.034,0,30.897-13.862,30.897-30.897
		c0-3.607-0.739-7.02-1.88-10.241c-8.641-1.914-17.592-3-26.809-3C255.503,132.414,255.024,132.482,254.528,132.488z"/>
</g>
<g>
	<path style="fill:#FFCD6E;" d="M167.724,244.966c-4.879,0-8.828,3.948-8.828,8.828c0,7.302-5.94,13.241-13.241,13.241
		c-7.05,0-12.777-5.552-13.167-12.506c-0.006,0.496-0.074,0.975-0.074,1.472c0,9.217,1.086,18.168,3,26.809
		c3.221,1.142,6.634,1.88,10.241,1.88c17.034,0,30.897-13.862,30.897-30.897C176.552,248.914,172.603,244.966,167.724,244.966z"/>
	<path style="fill:#FFCD6E;" d="M258.207,317.793c-6.991,0-13.468,1.971-19.179,5.155c-2.352-3.977-5.484-7.468-9.441-10.112
		c-6.957-4.647-15.284-6.328-23.509-4.672c-4.776,0.948-7.888,5.595-6.931,10.379c0.948,4.776,5.534,7.905,10.379,6.931
		c3.552-0.69,7.224,0.017,10.25,2.043c2.76,1.848,4.661,4.595,5.526,7.773c-4.302,6.348-6.82,13.997-6.82,22.227
		c0,6.265,1.589,12.116,4.183,17.391c10.619,2.972,21.767,4.678,33.335,4.678c0.497,0,0.976-0.068,1.471-0.074
		c-11.825-0.398-21.334-10.074-21.334-21.995c0-12.172,9.897-22.069,22.069-22.069c4.879,0,8.828-3.948,8.828-8.828
		S263.086,317.793,258.207,317.793z"/>
	<path style="fill:#FFCD6E;" d="M319.75,282.05c-10.883-7.359-24.566-9.638-37.457-5.748c-4.672,1.405-7.31,6.336-5.897,11
		c1.414,4.672,6.371,7.319,11,5.897c7.052-2.129,14.507-1.226,20.714,2.282c-2.62,4.503-4.587,9.369-5.671,14.528
		c-1.009,4.776,2.052,9.457,6.819,10.457c0.612,0.129,1.224,0.19,1.828,0.19c4.086,0,7.759-2.853,8.629-7.009
		c1.259-5.991,4.233-11.466,8.586-15.819c12.122-12.13,31.678-12.28,44.077-0.564c2.115-5.964,3.831-12.106,5.017-18.452
		C359.719,267.408,336.386,268.566,319.75,282.05z"/>
</g>
<path style="fill:#CDE16E;" d="M78.716,234.664c-4.879,0-8.828-3.948-8.828-8.828v-5.147c0-4.879,3.948-8.828,8.828-8.828
	s8.828,3.948,8.828,8.828v5.147C87.543,230.716,83.595,234.664,78.716,234.664z"/>
<g>
	<path style="fill:#ADDF6E;" d="M128,128c-4.879,0-8.828-3.948-8.828-8.828v-2.207c0-4.879,3.948-8.828,8.828-8.828
		c4.879,0,8.828,3.948,8.828,8.828v2.207C136.828,124.052,132.879,128,128,128z"/>
	<path style="fill:#ADDF6E;" d="M375.172,411.586c-2.034,0-4.078-0.698-5.741-2.129c-3.707-3.172-4.138-8.741-0.957-12.44
		l6.621-7.724c3.172-3.716,8.75-4.138,12.44-0.957c3.707,3.172,4.138,8.741,0.957,12.44l-6.621,7.724
		C380.129,410.543,377.655,411.586,375.172,411.586z"/>
</g>
<path style="fill:#FF6464;" d="M432.552,238.345c-19.502,0-35.31-15.809-35.31-35.31c0-5.175,1.175-10.052,3.175-14.481
	c-12.261,5.537-20.83,17.809-20.83,32.136c0,19.501,15.809,35.31,35.31,35.31c14.327,0,26.599-8.569,32.136-20.829
	C442.604,237.171,437.726,238.345,432.552,238.345z"/>
<g>
</g>
<g>
</g>
<g>
</g>
<g>
</g>
<g>
</g>
<g>
</g>
<g>
</g>
<g>
</g>
<g>
</g>
<g>
</g>
<g>
</g>
<g>
</g>
<g>
</g>
<g>
</g>
<g>
</g>
</svg>
