<svg id="Capa_1" enable-background="new 0 0 512 512" height="512" viewBox="0 0 512 512" width="512" xmlns="http://www.w3.org/2000/svg"><g><g><circle cx="256" cy="256" fill="#ecf4ff" r="256"/><path d="m256 0c-5.19 0-10.339.173-15.453.478 134.188 7.992 240.548 119.327 240.548 255.522s-106.36 247.53-240.547 255.522c5.113.305 10.262.478 15.452.478 141.385 0 256-114.615 256-256s-114.615-256-256-256z" fill="#ddeafb"/><circle cx="256" cy="256" fill="#cbe2ff" r="186.794"/><path d="m256 69.206c-5.204 0-10.356.223-15.453.641 95.933 7.857 171.341 88.194 171.341 186.153s-75.408 178.296-171.341 186.153c5.097.418 10.248.641 15.453.641 103.163 0 186.794-83.631 186.794-186.794s-83.631-186.794-186.794-186.794z" fill="#bed8fb"/></g><g><g><circle cx="378.798" cy="339.254" fill="#e5979d" r="56.145"/><path d="m418.498 299.554c-2.644-2.645-5.491-4.963-8.484-6.969 14.63 21.822 12.313 51.635-6.969 70.917-19.281 19.282-49.094 21.6-70.917 6.969 2.007 2.993 4.324 5.839 6.969 8.484 21.926 21.926 57.475 21.926 79.401 0s21.926-57.475 0-79.401z" fill="#e17f85"/><g fill="#efc2c6"><circle cx="365.338" cy="363.641" r="7.726"/><circle cx="399.054" cy="358.17" r="7.726"/></g></g><g><circle cx="409.703" cy="277.443" fill="#e17f85" r="56.145"/><path d="m440.89 230.741c8.459 12.633 11.793 28.637 7.902 44.57-7.357 30.123-37.74 48.577-67.863 41.22-6.557-1.602-12.56-4.296-17.866-7.84 7.533 11.251 19.13 19.827 33.319 23.293 30.122 7.357 60.506-11.098 67.863-41.22 5.755-23.565-4.288-47.287-23.355-60.023z" fill="#de646e"/><g fill="#efc2c6"><circle cx="410.859" cy="305.274" r="7.726"/><circle cx="424.087" cy="251.114" r="7.726"/><circle cx="436.836" cy="283.095" r="7.726"/></g></g></g><g><g><circle cx="87.992" cy="231.746" fill="#e5979d" r="56.145"/><path d="m119.189 185.063c9.069 13.564 12.185 30.945 7.008 47.755-9.126 29.635-40.548 46.26-70.183 37.133-5.341-1.645-10.251-4.023-14.673-6.975 6.919 10.349 17.3 18.479 30.125 22.428 29.634 9.127 61.056-7.498 70.183-37.133 7.482-24.294-2.35-49.779-22.46-63.208z" fill="#e17f85"/><g fill="#efc2c6"><circle cx="72.731" cy="255.048" r="7.726"/><circle cx="61.798" cy="222.688" r="7.726"/></g></g><g><circle cx="128.173" cy="175.522" fill="#e17f85" r="56.145"/><path d="m170.153 138.239c-9.071-10.213-21.033-16.33-33.56-18.223.906.891 1.798 1.806 2.655 2.771 20.59 23.185 18.487 58.671-4.698 79.262-12.971 11.52-29.792 15.931-45.702 13.526 20.877 20.536 54.387 21.66 76.607 1.927 23.185-20.592 25.288-56.077 4.698-79.263z" fill="#de646e"/><g fill="#efc2c6"><circle cx="103.033" cy="187.515" r="7.726"/><circle cx="144.719" cy="150.494" r="7.726"/><circle cx="110.489" cy="154.181" r="7.726"/><circle cx="129.266" cy="184.375" r="7.726"/></g></g></g><g><g><g><path d="m308.046 360.891c.699-2.403 2.549-4.295 4.932-5.06 25.338-8.13 48.257-24.453 64.401-48.148 8.573-12.583 14.514-26.184 17.944-40.15l-11.788-87.788-86.687 20.694c-11.742 8.303-22.225 18.808-30.799 31.391-16.144 23.695-22.949 50.998-21.243 77.553.16 2.498-.923 4.912-2.904 6.441l-40.631 31.372c-3.234 2.497-1.753 7.663 2.313 8.068l53.624 5.331c1.527.152 2.872 1.068 3.572 2.433l24.584 47.954c1.864 3.636 7.214 3.124 8.354-.8z" fill="#d3ced5"/><g><path d="m379.675 178.234c-1.522-.139-3.044-.241-4.567-.323 14.121 36.653 10.609 79.401-13.182 114.319-16.144 23.696-39.063 40.019-64.401 48.149-2.383.765-4.233 2.656-4.932 5.059l-14.328 49.293c-.137.473-.339.893-.585 1.266l7.683 14.987c1.864 3.636 7.214 3.124 8.354-.8l14.328-49.293c.699-2.403 2.549-4.295 4.932-5.059 25.338-8.13 48.257-24.453 64.401-48.149 8.573-12.583 14.514-26.184 17.944-40.149.304-1.239-.052-2.373.199-3.615 5.575-27.561-13.276-85.451-15.846-85.685z" fill="#c3bec6"/></g><path d="m379.661 178.233c-29.145-2.644-58.639 5.125-82.808 22.215 5.987 17.473 19.611 35.152 39.091 48.424s40.918 19.483 59.37 18.66c7.061-28.746-.051-53.718-13.176-79.874-1.161-2.315.103-9.191-2.477-9.425z" fill="#f9f6f9"/><path d="m398.847 235.861c-.406-8.73-.661-28.225-13.162-53.526-1.161-2.311-3.442-3.865-6.017-4.102-1.519-.138-3.039-.24-4.56-.322 10.728 27.847 11.266 59.209.478 87.986 6.788 1.356 13.429 1.914 19.72 1.635.065-.264.13-.527.193-.791-.026-1.574 3.351-8.923 3.348-30.88z" fill="#efecef"/></g><circle cx="361.236" cy="211.861" fill="#c3bec6" r="7.726"/></g><g><g><g><path d="m204.631 273.477c1.07-2.263 3.196-3.837 5.671-4.215 26.306-4.016 51.519-16.505 71.211-37.346 10.457-11.068 18.476-23.556 24.074-36.803l2.387-88.406-88.999 6.569c-12.908 6.34-24.923 15.052-35.38 26.12-19.692 20.841-30.732 46.722-33.252 73.213-.237 2.492-1.689 4.704-3.887 5.9l-45.085 24.544c-3.589 1.954-2.944 7.289 1.007 8.332l52.104 13.753c1.483.392 2.666 1.509 3.141 2.968l16.682 51.241c1.265 3.885 6.628 4.227 8.376.533z" fill="#d3ced5"/><g><path d="m304.248 110.45c-.778-2.461 2.524-5.351.024-5.989-2.573-.656-5.164-1.224-7.766-1.712 9.305 39.225-.691 82.221-30.447 113.713-19.692 20.841-44.906 33.33-71.211 37.346-2.474.378-4.6 1.953-5.671 4.215l-20.636 43.624 5.762 17.699c1.265 3.885 6.628 4.226 8.376.533l21.95-46.403c1.07-2.263 3.196-3.837 5.671-4.215 26.306-4.016 51.52-16.505 71.211-37.346 10.457-11.067 18.476-23.556 24.074-36.803 11.526-27.269 7.488-56.753-1.337-84.662z" fill="#c3bec6"/></g><path d="m304.258 104.459c-28.359-7.224-58.711-4.223-85.28 8.826 3.145 18.2 13.799 37.813 30.932 54.002s37.318 25.714 55.667 27.823c11.522-27.266 12.799-57.739 3.98-85.643-.779-2.47-2.789-4.369-5.299-5.008z" fill="#f9f6f9"/><path d="m315.302 144.819c-.47-1.224 1.251-8.968-4.714-31.899-.328-1.156-.668-2.309-1.03-3.456-.781-2.468-2.79-4.366-5.299-5.005-.005-.001-.009-.002-.014-.004-1.158-.294-2.319-.566-3.483-.826-1.403-.313-2.814-.6-4.224-.873-.01-.002-.021-.004-.031-.006 6.895 29.066 3.18 60.198-11.307 87.19 6.876 2.662 13.743 4.406 20.37 5.169 6.091-14.439 10.128-31.7 9.732-50.29z" fill="#efecef"/></g><circle cx="280.742" cy="134.746" fill="#c3bec6" r="7.726"/></g><g><path d="m238.104 218.386c-1.978 0-3.957-.756-5.466-2.266l-27.505-27.53c-3.016-3.018-3.014-7.91.005-10.927 3.019-3.015 7.91-3.014 10.927.005l27.505 27.53c3.016 3.018 3.014 7.91-.005 10.927-1.509 1.508-3.485 2.261-5.461 2.261z" fill="#f9f6f9"/></g><g><path d="m216.837 239.634c-1.978 0-3.957-.756-5.466-2.266l-27.506-27.529c-3.016-3.018-3.014-7.91.005-10.927 3.019-3.015 7.91-3.014 10.927.005l27.506 27.529c3.016 3.018 3.014 7.91-.005 10.927-1.508 1.507-3.485 2.261-5.461 2.261z" fill="#f9f6f9"/></g></g><g><g><path d="m333.836 299.471c-1.653 0-3.318-.527-4.725-1.618l-30.769-23.827c-3.374-2.613-3.991-7.466-1.378-10.839 2.612-3.375 7.466-3.993 10.839-1.378l30.769 23.827c3.374 2.613 3.991 7.466 1.378 10.839-1.522 1.967-3.806 2.996-6.114 2.996z" fill="#f9f6f9"/></g><g><path d="m315.43 323.239c-1.653 0-3.318-.527-4.725-1.618l-30.769-23.827c-3.374-2.613-3.991-7.466-1.378-10.839 2.612-3.376 7.466-3.992 10.839-1.378l30.769 23.827c3.374 2.613 3.991 7.466 1.378 10.839-1.523 1.967-3.807 2.996-6.114 2.996z" fill="#f9f6f9"/></g></g></g><g><g><path d="m228.75 420.745c2.115 2.115 1.981 5.574-.269 7.544-32.345 28.325-81.57 27.066-112.414-3.778s-32.103-80.069-3.778-112.414c1.971-2.25 5.429-2.384 7.544-.269z" fill="#fdf9ce"/><path d="m174.353 456.292c-23.155.001-46.267-8.834-63.749-26.316-33.427-33.427-35.239-87.441-4.127-122.969 2.348-2.681 5.735-4.286 9.293-4.404 3.541-.097 7.018 1.254 9.527 3.762l108.917 108.917c2.508 2.508 3.879 5.98 3.762 9.525-.118 3.558-1.722 6.947-4.403 9.295-16.947 14.841-38.102 22.19-59.22 22.19zm-58.006-137.024c-23.932 29.421-21.864 72.733 5.184 99.781 27.048 27.049 70.36 29.117 99.781 5.184z" fill="#ffe07d"/></g><g><path d="m116.067 432.238c-1.977 0-3.955-.755-5.463-2.263-3.018-3.018-3.018-7.909 0-10.928l58.225-58.225c3.017-3.016 7.909-3.016 10.927 0 3.018 3.018 3.018 7.909 0 10.928l-58.225 58.225c-1.509 1.509-3.487 2.263-5.464 2.263z" fill="#ffe07d"/></g><g><path d="m174.299 374.013c-.154 0-.309-.004-.464-.013l-82.191-4.873c-4.26-.254-7.508-3.91-7.256-8.171.253-4.26 3.924-7.509 8.17-7.256l82.191 4.873c4.26.254 7.508 3.91 7.256 8.171-.244 4.104-3.648 7.269-7.706 7.269z" fill="#ffe07d"/></g><g><path d="m179.158 456.204c-4.058 0-7.462-3.165-7.706-7.269l-4.873-82.191c-.253-4.261 2.996-7.918 7.256-8.171 4.261-.241 7.918 2.997 8.17 7.256l4.873 82.191c.253 4.261-2.996 7.918-7.256 8.171-.155.009-.311.013-.464.013z" fill="#ffe07d"/></g></g></g></svg>