<svg id="Capa_1" enable-background="new 0 0 512.008 512.008" height="512" viewBox="0 0 512.008 512.008" width="512" xmlns="http://www.w3.org/2000/svg"><g>
<path d="m166.403 124.138 300.21 198.68c4.584 3.035 10.799 1.803 13.857-2.821 51.641-78.035 37.976-180.594-27.781-242.814 7.552-2.982 14.006-8.181 18.58-15.094 12.199-18.423 7.173-43.227-11.274-55.426-18.426-12.21-43.234-7.167-55.432 11.276-4.567 6.901-6.83 14.861-6.633 22.965-82.039-35.95-182.048-9.664-234.349 69.376-3.046 4.606-1.784 10.81 2.822 13.858zm254.84-95.163c6.062-9.166 18.444-11.775 27.713-5.635 9.218 6.097 11.743 18.487 5.638 27.708-.001.001-.002.003-.003.004-6.095 9.217-18.489 11.736-27.712 5.635-9.214-6.092-11.739-18.49-5.636-27.712zm-5.402 44.391c.001.001.002.002.004.003.001 0 .001.001.002.001 75.368 49.879 98.061 149.917 53.222 227.09l-283.051-187.324c53.463-71.494 154.151-89.846 229.823-39.77z"/>
<path d="m201.834 387.362c9.666 7.393 20.621 15.772 32.659 26.204 1.879 1.629 4.214 2.443 6.549 2.443s4.671-.814 6.55-2.443c12.769-11.068 24.253-19.764 34.385-27.435 25.582-19.371 44.065-33.366 44.065-59.731 0-28.256-20.737-50.39-47.21-50.39-18.266 0-30.175 10.273-37.489 20.445-7.021-10.199-18.629-20.445-36.931-20.445-26.479 0-47.22 22.134-47.22 50.39 0 26.818 18.725 41.139 44.642 60.962zm2.578-91.354c20.032 0 26.673 24.452 26.936 25.453 1.104 4.364 4.994 7.433 9.496 7.525.068.001.136.002.205.002 4.417 0 8.329-2.923 9.591-7.173.313-1.054 7.899-25.807 28.192-25.807 15.512 0 27.21 13.065 27.21 30.39 0 15.793-10.432 24.321-36.139 43.787-8.639 6.541-18.236 13.808-28.861 22.692-9.898-8.277-18.925-15.181-27.058-21.401-25.513-19.513-36.792-28.825-36.792-45.077 0-17.326 11.702-30.391 27.22-30.391z"/>

<path d="m10.042 452.008h30c11.028 0 20 8.972 20 20 0 22.056 17.944 40 40 40h96c5.522 0 10-4.477 10-10s-4.478-10-10-10h-96c-11.028 0-20-8.972-20-20 0-7.283-1.966-14.112-5.381-20.01h332.763c-3.415 5.898-5.381 12.727-5.381 20.01 0 11.028-8.972 20-20 20h-96c-5.522 0-10 4.477-10 10s4.478 10 10 10h96c22.056 0 40-17.944 40-40 0-11.028 8.972-20 20-20h30c5.522 0 10-4.477 10-10s-4.478-10-10-10c-15.554 0-445.181 0-462 0-5.522 0-10 4.477-10 10s4.476 10 9.999 10z"/></g></svg>