<svg width="1108" height="1108" viewBox="0 0 1108 1108" fill="none" xmlns="http://www.w3.org/2000/svg">
<path id="plate" d="M554 1108C859.966 1108 1108 859.966 1108 554C1108 248.034 859.966 0 554 0C248.034 0 0 248.034 0 554C0 859.966 248.034 1108 554 1108Z" fill="#EBEBEB"/>
<g id="fish">
<path id="Vector" d="M248.345 554V439.379L458.483 324.759H840.552V422.511C840.554 455.402 819.507 484.607 788.304 495.009L668.621 534.897L840.552 592.207V687.724C840.552 729.926 806.34 764.138 764.138 764.138H458.483C342.427 764.138 248.345 670.056 248.345 554Z" fill="#C7463B"/>
<path id="Vector_2" d="M768.398 668.621H458.483C342.427 668.621 248.345 574.539 248.345 458.483C248.345 342.427 342.427 248.345 458.483 248.345H764.138C806.34 248.345 840.552 282.557 840.552 324.759V332.4C840.552 362.593 822.771 389.956 795.181 402.223L668.621 458.483L803.434 533.387C826.344 546.113 840.552 570.259 840.552 596.467C840.552 636.317 808.248 668.621 768.398 668.621Z" fill="#DC4D41"/>
</g>
<g id="lemon">
<path id="Vector_3" d="M687.724 971.888C750.677 972.237 801.996 921.486 802.345 858.533C802.383 851.706 801.807 844.888 800.625 838.164H574.823C563.924 900.169 605.352 959.268 667.355 970.169C674.079 971.351 680.897 971.926 687.724 971.888Z" fill="#F4CA62"/>
<g id="lemon_2">
<path id="Vector_4" d="M819.538 835.012C817.998 825.809 810.034 819.063 800.702 819.06H574.823C565.491 819.063 557.527 825.809 555.987 835.012C543.304 907.767 592.001 977.032 664.759 989.714C737.515 1002.4 806.779 953.699 819.461 880.941C822.11 865.744 822.11 850.206 819.461 835.009H819.538V835.012ZM649.364 857.267L607.337 908.407C597.501 893.16 592.25 875.411 592.207 857.267H649.364ZM634.005 936.069L687.724 870.659L741.443 936.069C709.065 958.253 666.383 958.253 634.005 936.069ZM768.111 908.331L726.084 857.191H783.241C783.215 875.361 777.962 893.139 768.111 908.407V908.331Z" fill="#F3AF3E"/>
<path id="Vector_5" d="M496.69 1029.2C559.643 1029.55 610.962 978.796 611.31 915.843C611.349 909.016 610.773 902.199 609.591 895.474H383.788C372.89 957.479 414.318 1016.58 476.321 1027.48C483.045 1028.66 489.863 1029.24 496.69 1029.2Z" fill="#F4CA62"/>
<path id="Vector_6" d="M628.503 892.322C626.963 883.119 618.999 876.373 609.667 876.371H383.788C374.456 876.373 366.492 883.119 364.952 892.322C352.27 965.078 400.967 1034.34 473.725 1047.02C546.48 1059.71 615.745 1011.01 628.427 938.252C631.075 923.055 631.075 907.516 628.427 892.32H628.503V892.322ZM458.33 914.578L416.302 965.717C406.466 950.471 401.215 932.721 401.172 914.578H458.33ZM442.971 993.379L496.69 927.969L550.408 993.379C518.031 1015.56 475.349 1015.56 442.971 993.379ZM577.077 965.641L535.049 914.501H592.207C592.181 932.671 586.927 950.449 577.077 965.717V965.641Z" fill="#FBB540"/>
</g>
</g>
<g id="sla">
<g id="Group">
<path id="Vector_7" d="M327.127 244.371C323.651 244.369 320.241 243.409 317.27 241.601L279.063 218.505C273.435 215.107 269.948 209.051 269.836 202.477L269.034 152.331C268.864 141.781 277.277 133.091 287.827 132.922C287.834 132.922 287.844 132.922 287.851 132.922C298.205 132.573 306.883 140.685 307.231 151.041C307.238 151.268 307.243 151.495 307.241 151.72L307.871 191.302L337.023 208.934C346.045 214.405 348.92 226.154 343.449 235.175C339.989 240.88 333.802 244.366 327.127 244.371Z" fill="#6B9777"/>
<path id="Vector_8" d="M385.24 207.75C381.728 207.748 378.284 206.776 375.287 204.942L336.221 181.062C330.729 177.707 327.297 171.812 327.089 165.379L325.504 116.034C325.172 105.496 333.439 96.6826 343.977 96.3387C354.269 95.7585 363.083 103.629 363.663 113.921C363.68 114.217 363.689 114.513 363.691 114.812L364.952 153.859L395.155 172.351C404.155 177.858 406.987 189.616 401.48 198.616C398.008 204.29 391.836 207.75 385.183 207.75H385.24Z" fill="#6B9777"/>
<path id="Vector_9" d="M441.748 175.905C438.271 175.907 434.861 174.957 431.891 173.154L393.684 150.077C388.048 146.674 384.562 140.611 384.457 134.03L383.655 82.2977C383.485 71.7478 391.898 63.0581 402.448 62.8886C402.455 62.8886 402.464 62.8886 402.471 62.8886H402.777C413.21 62.8862 421.713 71.2559 421.881 81.6863L422.511 122.854L451.663 140.449C460.694 145.903 463.593 157.646 458.139 166.678C454.676 172.411 448.465 175.912 441.767 175.905H441.748Z" fill="#6B9777"/>
</g>
<path id="Vector_10" d="M252.338 244.371C241.788 244.381 233.227 235.834 233.217 225.285C233.213 218.653 236.646 212.495 242.289 209.011L448.453 81.6481C457.181 75.7213 469.061 77.9898 474.991 86.7177C480.917 95.4456 478.649 107.326 469.921 113.255C469.465 113.565 468.994 113.854 468.512 114.124L262.367 241.525C259.353 243.385 255.879 244.371 252.338 244.371Z" fill="#5E8569"/>
</g>
<g id="patato">
<path id="Vector_11" d="M916.966 496.69H955.172V534.897H916.966V496.69Z" fill="#FBB540"/>
<g id="Group_2">
<path id="Vector_12" d="M974.276 592.207H1012.48V630.414H974.276V592.207Z" fill="#EA9D2D"/>
<path id="Vector_13" d="M974.276 401.172H1012.48V439.379H974.276V401.172Z" fill="#EA9D2D"/>
<path id="Vector_14" d="M171.931 764.138H210.138V802.345H171.931V764.138Z" fill="#EA9D2D"/>
</g>
<path id="Vector_15" d="M114.621 668.621H152.828V706.828H114.621V668.621Z" fill="#FBB540"/>
</g>
<g id="fishbone">
<g id="Group_3">
<path id="Vector_16" d="M668.621 573.104C660.803 573.106 653.773 568.347 650.874 561.087L612.667 465.57C610.85 461.021 610.85 455.944 612.667 451.395L650.874 355.878C654.787 346.076 665.906 341.305 675.708 345.218C685.511 349.132 690.282 360.25 686.368 370.053L650.988 458.483L686.368 546.913C690.282 556.71 685.513 567.826 675.715 571.74C673.459 572.643 671.052 573.104 668.621 573.104Z" fill="#A83B32"/>
<path id="Vector_17" d="M573.103 573.104C565.285 573.106 558.255 568.347 555.356 561.087L517.149 465.57C515.332 461.021 515.332 455.944 517.149 451.395L555.356 355.878C559.27 346.076 570.388 341.305 580.191 345.218C589.993 349.132 594.764 360.25 590.851 370.053L555.471 458.483L590.851 546.913C594.764 556.71 589.996 567.826 580.198 571.74C577.941 572.643 575.534 573.104 573.103 573.104Z" fill="#A83B32"/>
<path id="Vector_18" d="M477.586 573.104C469.768 573.106 462.738 568.347 459.839 561.087L421.632 465.57C419.815 461.021 419.815 455.944 421.632 451.395L459.839 355.878C463.753 346.076 474.871 341.305 484.674 345.218C494.476 349.132 499.247 360.25 495.333 370.053L459.954 458.483L495.333 546.913C499.247 556.71 494.478 567.826 484.681 571.74C482.424 572.643 480.017 573.104 477.586 573.104Z" fill="#A83B32"/>
</g>
<path id="Vector_19" d="M668.621 477.586H401.172C390.623 477.586 382.069 469.033 382.069 458.483C382.069 447.933 390.623 439.379 401.172 439.379H668.621C679.171 439.379 687.724 447.933 687.724 458.483C687.724 469.033 679.171 477.586 668.621 477.586Z" fill="#A83B32"/>
</g>
</svg>
