<svg width="512" height="512" viewBox="0 0 512 512" fill="none" xmlns="http://www.w3.org/2000/svg">
<g id="Group">
<g id="heart">
<path id="Vector" d="M201.788 387.355C211.454 394.748 222.409 403.127 234.446 413.559C236.325 415.188 238.66 416.002 240.995 416.002C243.33 416.002 245.666 415.188 247.545 413.559C260.314 402.491 271.798 393.795 281.93 386.125C307.511 366.754 325.994 352.759 325.994 326.394C325.994 298.139 305.257 276.005 278.785 276.005C260.519 276.005 248.61 286.278 241.296 296.45C234.275 286.251 222.668 276.005 204.366 276.005C177.887 276.005 157.147 298.139 157.147 326.394C157.147 353.212 175.871 367.533 201.788 387.355V387.355ZM204.366 296.003C224.397 296.003 231.038 320.455 231.301 321.456C232.405 325.819 236.295 328.888 240.797 328.98C240.865 328.981 240.933 328.982 241.002 328.982C245.419 328.982 249.331 326.059 250.593 321.809C250.906 320.756 258.492 296.003 278.785 296.003C294.296 296.003 305.994 309.068 305.994 326.392C305.994 342.185 295.562 350.713 269.856 370.179C261.217 376.72 251.62 383.987 240.995 392.87C231.097 384.594 222.071 377.69 213.938 371.47C188.425 351.957 177.146 342.645 177.146 326.393C177.146 309.068 188.848 296.003 204.366 296.003V296.003Z" fill="black"/>
</g>
<path id="Vector_2" d="M240.994 512C246.517 512 250.994 507.523 250.994 502C250.994 496.477 246.517 492 240.994 492C235.472 492 230.994 496.477 230.994 502C230.994 507.523 235.472 512 240.994 512Z" fill="black"/>
<g id="plate">
<path id="Vector_3" d="M166.357 124.136L466.563 322.812C471.147 325.847 477.362 324.615 480.42 319.992C532.06 241.958 518.395 139.4 452.639 77.1813C460.191 74.1993 466.645 69.0004 471.219 62.0875C483.417 43.6648 478.392 18.8612 459.945 6.6624C441.519 -5.54741 416.712 -0.504492 404.514 17.9382C399.947 24.8391 397.684 32.799 397.881 40.9029C315.843 4.95342 215.836 31.239 163.535 110.278C160.49 114.884 161.751 121.088 166.357 124.136V124.136ZM421.193 28.9741C427.255 19.8082 439.637 17.1992 448.906 23.3391C458.124 29.436 460.649 41.8258 454.544 51.0467C454.543 51.0477 454.542 51.0497 454.541 51.0507C448.446 60.2676 436.052 62.7865 426.829 56.6856C417.616 50.5937 415.091 38.1959 421.193 28.9741V28.9741ZM415.792 73.3644C415.793 73.3654 415.794 73.3664 415.796 73.3674C415.797 73.3674 415.797 73.3684 415.798 73.3684C491.164 123.247 513.857 223.283 469.019 300.455L185.972 113.134C239.434 41.6409 340.121 23.2891 415.792 73.3644Z" fill="black"/>
<path id="Vector_4" d="M9.99884 452H39.9984C51.0262 452 59.9981 460.972 59.9981 472C59.9981 494.056 77.9418 512 99.9974 512H195.996C201.518 512 205.996 507.523 205.996 502C205.996 496.477 201.518 492 195.996 492H99.9974C88.9696 492 79.9977 483.028 79.9977 472C79.9977 464.717 78.0318 457.888 74.6168 451.99H407.375C403.96 457.888 401.994 464.717 401.994 472C401.994 483.028 393.022 492 381.994 492H285.996C280.474 492 275.996 496.477 275.996 502C275.996 507.523 280.474 512 285.996 512H381.994C404.05 512 421.993 494.056 421.993 472C421.993 460.972 430.965 452 441.993 452H471.993C477.515 452 481.992 447.524 481.992 442.001C481.992 436.478 477.515 432.001 471.993 432.001C456.439 432.001 26.8186 432.001 9.99984 432.001C4.47793 432.001 0 436.478 0 442.001C0 447.524 4.47593 452 9.99884 452Z" fill="black"/>
</g>
</g>
</svg>
