<?xml version="1.0" encoding="iso-8859-1"?>
<!-- Generator: Adobe Illustrator 19.0.0, SVG Export Plug-In . SVG Version: 6.00 Build 0)  -->
<svg version="1.1" id="Capa_1" xmlns="http://www.w3.org/2000/svg" xmlns:xlink="http://www.w3.org/1999/xlink" x="0px" y="0px"
	 viewBox="0 0 512.001 512.001" style="enable-background:new 0 0 512.001 512.001;" xml:space="preserve">
<circle style="fill:#F7F0E6;" cx="256.001" cy="256.001" r="256"/>
<circle style="fill:#EEE2D4;" cx="256.001" cy="256.001" r="220.69"/>
<circle style="fill:#C7C773;" cx="256.001" cy="256.001" r="203.03"/>
<circle style="fill:#E1CD78;" cx="256.001" cy="256.001" r="176.55"/>
<path style="fill:#FFE0A6;" d="M197.518,216.281c-1.121,0-2.259-0.216-3.362-0.668c-4.509-1.858-6.655-7.017-4.802-11.526
	l3.862-9.379c1.862-4.513,7.009-6.642,11.526-4.802c4.509,1.858,6.655,7.017,4.802,11.526l-3.862,9.379
	C204.277,214.221,200.984,216.281,197.518,216.281z"/>
<path style="fill:#FFD28C;" d="M187.587,275.863c-2.388,0-4.776-0.97-6.517-2.875c-3.293-3.599-3.034-9.185,0.569-12.47
	l12.69-11.586c3.586-3.284,9.172-3.039,12.466,0.565c3.293,3.599,3.034,9.185-0.569,12.47l-12.69,11.586
	C191.846,275.1,189.717,275.863,187.587,275.863z"/>
<g>
	<path style="fill:#FFE0A6;" d="M117.527,339.863c-2.897,0-5.733-1.422-7.422-4.03l-12.138-18.759
		c-2.647-4.095-1.474-9.56,2.621-12.207c4.095-2.655,9.56-1.478,12.207,2.612l12.138,18.759c2.647,4.095,1.474,9.56-2.621,12.207
		C120.829,339.406,119.173,339.863,117.527,339.863z"/>
	<path style="fill:#FFE0A6;" d="M198.622,418.76c-2.259,0-4.517-0.862-6.241-2.586c-3.448-3.448-3.448-9.034,0-12.483l11.586-11.586
		c3.448-3.448,9.034-3.448,12.483,0s3.448,9.034,0,12.483l-11.586,11.586C203.139,417.898,200.88,418.76,198.622,418.76z"/>
</g>
<g>
	<path style="fill:#FFD28C;" d="M278.622,358.626c-3.828,0-7.353-2.509-8.474-6.371l-4.966-17.103
		c-1.362-4.681,1.328-9.578,6.009-10.94c4.733-1.375,9.578,1.336,10.94,6.017l4.966,17.103c1.362,4.681-1.328,9.578-6.009,10.94
		C280.26,358.51,279.432,358.626,278.622,358.626z"/>
	<path style="fill:#FFD28C;" d="M105.944,211.863c-0.552,0-1.112-0.052-1.672-0.159c-4.793-0.918-7.922-5.547-7.009-10.336
		l2.759-14.345c0.931-4.789,5.578-7.909,10.336-7c4.793,0.918,7.922,5.547,7.009,10.336l-2.759,14.345
		C113.789,208.928,110.091,211.863,105.944,211.863z"/>
</g>
<g>
	<path style="fill:#ADDF6E;" d="M161.256,307.557c-4.398-0.766-7.717,4.062-5.427,7.894c7.788,13.034,19.345,25.487,34.079,35.616
		c14.733,10.129,30.499,16.461,45.458,19.065c4.398,0.766,7.717-4.062,5.427-7.894c-7.788-13.034-19.345-25.487-34.079-35.616
		C191.98,316.492,176.214,310.161,161.256,307.557z"/>
	<path style="fill:#ADDF6E;" d="M292.941,293.136c-3.127,3.186-1.037,8.659,3.417,8.95c15.151,0.989,31.964-1.455,48.668-7.832
		c16.703-6.378,30.867-15.761,41.503-26.597c3.127-3.186,1.037-8.659-3.417-8.95c-15.151-0.989-31.964,1.455-48.668,7.832
		C317.741,272.917,303.578,282.3,292.941,293.136z"/>
	<path style="fill:#ADDF6E;" d="M295.438,153.015c0.788-4.394-4.023-7.737-7.867-5.467c-13.073,7.723-25.584,19.217-35.787,33.9
		c-10.203,14.683-16.614,30.416-19.293,45.362c-0.788,4.394,4.023,7.737,7.867,5.467c13.073-7.723,25.584-19.217,35.787-33.9
		C286.349,183.695,292.759,167.961,295.438,153.015z"/>
</g>
<g>
	<path style="fill:#F7F0E6;" d="M240.406,264.925l-20.371,21.357c-2.65,2.779-2.546,7.18,0.232,9.83l21.357,20.371
		c3.125,2.981,8.29,2.479,10.645-1.141c9.888-15.201,9.418-35.064-1.177-49.781C248.57,262.056,243.387,261.8,240.406,264.925z"/>
	<path style="fill:#F7F0E6;" d="M337.98,198.056l27.27,11.29c3.548,1.469,7.615-0.217,9.084-3.765l11.29-27.27
		c1.652-3.99-0.68-8.626-4.906-9.516c-17.745-3.735-36.1,3.872-46.001,19.064C332.359,191.478,333.99,196.405,337.98,198.056z"/>
	<path style="fill:#F7F0E6;" d="M309.026,354.891l-3.641,25.321c-0.547,3.801,2.092,7.325,5.893,7.872l25.321,3.641
		c4.275,0.615,8.247-2.79,7.987-7.101c-0.966-15.983-11.433-29.966-26.496-35.396C314.027,347.764,309.641,350.616,309.026,354.891z
		"/>
	<path style="fill:#F7F0E6;" d="M250.339,424.568l18.41-1.992c3.818-0.413,6.578-3.843,6.165-7.661l-1.992-18.41
		c-0.5-4.618-5.295-7.428-9.612-5.712c-10.855,4.313-18.716,14.082-20.607,25.608C241.951,420.984,245.721,425.068,250.339,424.568z
		"/>
</g>
<g>
	<path style="fill:#FFA55F;" d="M148.741,364.535l14.478,11.59c2.998,2.4,7.373,1.915,9.773-1.083l11.59-14.478
		c2.749-3.434,1.765-8.758-2.247-10.564c-11.045-4.971-24.024-3.534-33.713,3.734C145.103,356.376,145.307,361.786,148.741,364.535z
		"/>
	<path style="fill:#FFA55F;" d="M275.27,232.121l14.478,11.59c2.998,2.4,7.373,1.915,9.773-1.083l11.59-14.478
		c2.749-3.434,1.765-8.758-2.247-10.564c-11.045-4.971-24.024-3.534-33.713,3.734C271.632,223.962,271.836,229.372,275.27,232.121z"
		/>
	<path style="fill:#FFA55F;" d="M396.148,313.715l-25.509,1.934c-3.829,0.29-6.698,3.63-6.407,7.459l1.934,25.509
		c0.326,4.306,4.512,7.447,8.663,6.258c15.393-4.407,26.775-17.657,28.811-33.538C404.19,317.052,400.454,313.389,396.148,313.715z"
		/>
	<path style="fill:#FFA55F;" d="M243.511,104.681l10.836,15.218c2.227,3.128,6.569,3.858,9.697,1.631l15.218-10.836
		c3.584-2.552,4.09-7.94,0.728-10.777c-9.312-7.858-22.27-10.038-33.641-5.659C242.243,95.84,240.959,101.097,243.511,104.681z"/>
</g>
<g>
	<path style="fill:#FFD28C;" d="M335.449,134.07c-2.078,0-4.164-0.728-5.836-2.207l-9.379-8.276
		c-3.664-3.228-4.009-8.806-0.784-12.461c3.241-3.655,8.828-3.987,12.457-0.78l9.379,8.276c3.664,3.228,4.009,8.806,0.784,12.461
		C340.32,133.061,337.889,134.07,335.449,134.07z"/>
	<path style="fill:#FFD28C;" d="M407.165,241.656c-1.509,0-3.043-0.388-4.44-1.203c-4.207-2.457-5.629-7.862-3.181-12.073
		l7.724-13.241c2.474-4.203,7.888-5.621,12.078-3.177c4.207,2.457,5.629,7.862,3.181,12.073l-7.724,13.241
		C413.156,240.087,410.199,241.656,407.165,241.656z"/>
</g>
<g>
	<path style="fill:#FFE0A6;" d="M329.923,334.898c-4.517,0-8.362-3.444-8.784-8.03c-0.44-4.853,3.138-9.147,7.991-9.591l6.069-0.552
		c4.931-0.328,9.147,3.138,9.595,7.996c0.44,4.853-3.138,9.147-7.991,9.591l-6.069,0.552
		C330.458,334.885,330.191,334.898,329.923,334.898z"/>
	<path style="fill:#FFE0A6;" d="M208.173,119.91c-1.284,0-2.595-0.28-3.828-0.879l-21.328-10.302
		c-4.397-2.121-6.233-7.397-4.112-11.789c2.129-4.375,7.405-6.237,11.784-4.108l21.328,10.302c4.397,2.121,6.233,7.397,4.112,11.789
		C214.604,118.074,211.458,119.91,208.173,119.91z"/>
	<path style="fill:#FFE0A6;" d="M422.242,297.195c-4.19,0-7.905-2.987-8.681-7.25l-2.94-16.181
		c-0.871-4.797,2.319-9.392,7.112-10.263c4.784-0.892,9.397,2.31,10.267,7.108l2.94,16.181c0.871,4.797-2.319,9.392-7.112,10.263
		C423.294,297.152,422.768,297.195,422.242,297.195z"/>
	<path style="fill:#FFE0A6;" d="M345.76,244.229c-0.362,0-0.733-0.022-1.095-0.069l-5.888-0.733
		c-4.845-0.599-8.276-5.013-7.672-9.849c0.595-4.832,5.069-8.267,9.845-7.668l5.888,0.733c4.845,0.599,8.276,5.013,7.672,9.849
		C353.958,240.958,350.148,244.229,345.76,244.229z"/>
	<path style="fill:#FFE0A6;" d="M324.406,166.255c-1.328,0-2.672-0.297-3.94-0.931c-4.362-2.181-6.129-7.483-3.948-11.845
		l2.207-4.414c2.19-4.366,7.491-6.134,11.845-3.948c4.362,2.181,6.129,7.483,3.948,11.845l-2.207,4.414
		C330.76,164.471,327.648,166.255,324.406,166.255z"/>
	<path style="fill:#FFE0A6;" d="M311.173,427.402h-5.147c-4.879,0-8.828-3.953-8.828-8.828s3.948-8.828,8.828-8.828h5.147
		c4.879,0,8.828,3.953,8.828,8.828S316.053,427.402,311.173,427.402z"/>
	<path style="fill:#FFE0A6;" d="M369.294,144.919c-3.362,0-6.569-1.922-8.043-5.181l-3.672-8.091
		c-2.017-4.435-0.052-9.668,4.388-11.685c4.448-2.009,9.672-0.043,11.681,4.388l3.672,8.095c2.017,4.435,0.052,9.668-4.388,11.685
		C371.751,144.665,370.51,144.919,369.294,144.919z"/>
</g>
<g>
	<path style="fill:#87CD6E;" d="M237.382,357.211c-13.229-3.098-26.871-8.875-39.751-17.73
		c-12.812-8.809-23.05-19.412-30.669-30.589c-1.904-0.446-3.825-1.008-5.707-1.335c-4.398-0.766-7.717,4.062-5.427,7.894
		c7.788,13.034,19.345,25.488,34.079,35.617s30.499,16.461,45.458,19.065c4.398,0.766,7.717-4.062,5.427-7.894
		C239.777,360.539,238.525,358.886,237.382,357.211z"/>
	<path style="fill:#87CD6E;" d="M263.555,188.805c8.835-12.714,19.436-22.865,30.599-30.419c0.422-1.79,0.968-3.599,1.285-5.371
		c0.788-4.394-4.024-7.737-7.867-5.467c-13.073,7.723-25.584,19.218-35.787,33.9c-10.203,14.683-16.614,30.416-19.293,45.362
		c-0.788,4.394,4.024,7.738,7.867,5.467c1.753-1.036,3.46-2.311,5.188-3.481C248.689,215.48,254.561,201.747,263.555,188.805z"/>
	<path style="fill:#87CD6E;" d="M385.722,259.688c-9.502,7.955-20.969,14.848-34.075,19.852
		c-16.704,6.378-33.517,8.822-48.668,7.832c-1.019-0.066-1.873-0.462-2.61-0.981c-2.608,2.183-5.137,4.411-7.428,6.744
		c-3.127,3.186-1.037,8.659,3.417,8.95c15.151,0.989,31.964-1.455,48.668-7.832c16.703-6.378,30.866-15.761,41.503-26.596
		C388.942,265.199,388.209,261.439,385.722,259.688z"/>
</g>
<path style="fill:#EEE2D4;" d="M144.279,207.459c0.492,2.07,1.223,5.216,4.154,8.439c11.758-31.464,36.864-56.321,68.491-67.741
	c-2.456-1.907-5.501-3.013-9.623-3.72c-2.115-0.363-4.157-0.863-6.203-1.107c-22.975-2.731-44.725-11.765-61.085-28.124
	L29.982,5.174C22.407-2.412,9.628-1.655,3.092,7.445C-2.043,14.592-0.513,24.61,5.71,30.832L115.049,140.17
	c16.359,16.36,25.394,38.11,28.124,61.085C143.416,203.302,143.782,205.371,144.279,207.459z"/>
<path style="fill:#E0D0BB;" d="M144.279,207.459c0.492,2.07,1.223,5.216,4.154,8.439c5.068-13.561,12.599-25.88,22.093-36.453
	c-6.557-12.58-14.781-24.27-25.019-34.509L5.425,4.854c-0.83,0.783-1.633,1.615-2.334,2.591c-5.135,7.147-3.605,17.165,2.618,23.387
	L115.048,140.17c16.359,16.36,25.394,38.11,28.124,61.085C143.416,203.302,143.782,205.371,144.279,207.459z"/>
<path style="fill:#C7C773;" d="M143.517,241.699c-0.586,0-1.181-0.056-1.776-0.181c-4.776-0.974-7.862-5.638-6.879-10.414
	c9.716-47.526,46.586-85.086,93.931-95.694c4.759-1.06,9.474,1.927,10.543,6.681c1.069,4.759-1.922,9.478-6.681,10.543
	c-40.569,9.095-72.164,41.28-80.5,82.004C151.301,238.82,147.62,241.699,143.517,241.699z"/>
<path style="fill:#F7F0E6;" d="M105,257.176l18.77,22.777c2.442,2.963,6.824,3.386,9.788,0.944l22.777-18.77
	c3.333-2.746,3.452-7.935,0.139-10.705c-13.91-11.633-33.688-13.54-49.565-4.78C103.128,248.728,102.254,253.843,105,257.176z"/>
<g>
</g>
<g>
</g>
<g>
</g>
<g>
</g>
<g>
</g>
<g>
</g>
<g>
</g>
<g>
</g>
<g>
</g>
<g>
</g>
<g>
</g>
<g>
</g>
<g>
</g>
<g>
</g>
<g>
</g>
</svg>
