<?xml version="1.0" encoding="iso-8859-1"?>
<!-- Generator: Adobe Illustrator 19.0.0, SVG Export Plug-In . SVG Version: 6.00 Build 0)  -->
<svg version="1.1" id="Capa_1" xmlns="http://www.w3.org/2000/svg" xmlns:xlink="http://www.w3.org/1999/xlink" x="0px" y="0px"
	 viewBox="0 0 512 512" style="enable-background:new 0 0 512 512;" xml:space="preserve">
<circle style="fill:#F7F0E6;" cx="256" cy="256" r="256"/>
<path style="fill:#EEE2D4;" d="M258.823,116.07c-1.447-3.857-5.803-5.85-9.626-4.313c-37.484,15.072-72.629,37.722-103.001,68.094
	s-53.022,65.517-68.094,103.001c-1.537,3.822,0.455,8.179,4.313,9.626l267.104,100.164c5.912,2.217,11.685-3.556,9.468-9.468
	L258.823,116.07z"/>
<circle style="fill:#BE6C84;" cx="277.82" cy="277.82" r="106.74"/>
<path style="fill:#B45573;" d="M349.181,357.023l-69.698-185.859c-0.561-0.009-1.105-0.084-1.668-0.084
	c-58.949,0-106.736,47.787-106.736,106.736c0,19.433,5.276,37.598,14.351,53.293l126.956,47.608
	C326.149,374.002,338.605,366.559,349.181,357.023z"/>
<path style="fill:#FBE6A5;" d="M277.581,101.173c-1.447-3.857-5.803-5.85-9.626-4.313c-37.484,15.072-72.629,37.722-103.001,68.094
	s-53.022,65.517-68.094,103.001c-1.537,3.822,0.455,8.179,4.313,9.626l267.104,100.164c5.912,2.217,11.686-3.556,9.468-9.468
	L277.581,101.173z"/>
<path style="fill:#FFDC8C;" d="M277.581,101.173c-1.447-3.857-5.803-5.85-9.626-4.312c-37.484,15.072-72.629,37.722-103.001,68.094
	s-53.022,65.516-68.094,103.001c-1.537,3.822,0.455,8.179,4.312,9.626l44.532,16.699l0.448-4.777
	c0.35-3.732,0.305-7.351,0.267-10.545c-0.037-2.995-0.092-7.522,0.47-8.868c0.7-1.105,4.282-3.696,6.652-5.41
	c5.065-3.665,11.37-8.225,15.824-15.138c4.398-6.824,5.926-14.38,7.154-20.452c0.594-2.938,1.492-7.376,2.328-8.574
	c0.911-0.911,4.932-2.672,7.593-3.837c5.747-2.517,12.899-5.649,18.745-11.495s8.979-12.999,11.496-18.747
	c1.165-2.661,2.927-6.683,3.945-7.683c1.089-0.745,5.526-1.642,8.463-2.236c6.072-1.228,13.628-2.756,20.453-7.154
	c6.911-4.454,11.471-10.757,15.136-15.822l0.546-0.754c1.13-1.559,3.778-5.21,4.979-5.959c0.327-0.125,1.702-0.435,5.929-0.435
	l2.83,0.023l3.252,0.026c2.878,0,5.126-0.091,7.289-0.293l4.777-0.448L277.581,101.173z"/>
<path style="fill:#D79D8C;" d="M339.771,294.65c1.976-5.077,3.603-10.286,4.497-15.647l-23.192-61.847
	c-13.703-9.555-31.73-12.58-50.315-6.586c-19.241,6.206-34.971,20.724-44.22,38.548c-0.362-0.016-0.703-0.108-1.069-0.108
	c-13.61,0-24.644,11.033-24.644,24.644c0,11.244,7.576,20.623,17.868,23.581c2.151,11.936,7.282,22.062,14.471,29.843l45.207,16.953
	c4.519-0.417,9.122-1.316,13.765-2.814c10.828-3.492,20.47-9.687,28.54-17.55c2.161,0.943,4.537,1.481,7.045,1.481
	c9.751,0,17.655-7.905,17.655-17.655C345.379,302.415,343.204,297.871,339.771,294.65z"/>
<g>
	<circle style="fill:#B45573;" cx="257.21" cy="285.49" r="17.655"/>
	<circle style="fill:#B45573;" cx="277.31" cy="246.1" r="22.07"/>
</g>
<path style="fill:#D0A56C;" d="M277.581,101.173c-1.447-3.857-5.803-5.85-9.626-4.312c-37.484,15.072-72.629,37.722-103.001,68.094
	s-53.022,65.516-68.094,103.001c-1.537,3.822,0.455,8.179,4.312,9.626l27.401,10.275c0.8-8.533-1.166-18.31,2.519-25.649
	c4.596-9.154,17.808-13.501,23.432-22.228c5.539-8.596,4.019-22.422,10.561-30.52c6.411-7.936,20.238-9.38,27.615-16.758
	c7.378-7.378,8.822-21.206,16.759-27.617c8.097-6.54,21.922-5.019,30.517-10.559c4.363-2.811,7.631-7.52,10.953-12.101
	c3.322-4.58,6.697-9.032,11.273-11.33c7.339-3.685,17.119-1.721,25.652-2.521L277.581,101.173z"/>
<g>
	<path style="fill:#A04B69;" d="M273.477,249.936c-6.533-6.533-8.09-16.136-4.718-24.158c-2.56,1.076-4.968,2.633-7.053,4.718
		c-8.618,8.619-8.618,22.592,0,31.21c8.619,8.619,22.592,8.619,31.211,0c2.085-2.085,3.641-4.492,4.717-7.052
		C289.611,258.026,280.01,256.47,273.477,249.936z"/>
	<path style="fill:#A04B69;" d="M254.534,290.396c-5.497-5.497-7.45-13.165-5.935-20.241c-1.378,0.774-2.704,1.672-3.877,2.845
		c-6.894,6.895-6.894,18.073,0,24.968c6.895,6.895,18.074,6.895,24.968,0c0.36-0.36,0.622-0.774,0.945-1.156
		C264.822,296.943,258.97,294.832,254.534,290.396z"/>
</g>
<circle style="fill:#B45573;" cx="299.96" cy="285.49" r="17.655"/>
<path style="fill:#A04B69;" d="M297.293,290.396c-5.497-5.497-7.45-13.165-5.935-20.241c-1.378,0.774-2.704,1.672-3.877,2.845
	c-6.894,6.895-6.894,18.073,0,24.968c6.895,6.895,18.074,6.895,24.968,0c0.36-0.36,0.622-0.774,0.944-1.156
	C307.581,296.943,301.728,294.832,297.293,290.396z"/>
<g>
</g>
<g>
</g>
<g>
</g>
<g>
</g>
<g>
</g>
<g>
</g>
<g>
</g>
<g>
</g>
<g>
</g>
<g>
</g>
<g>
</g>
<g>
</g>
<g>
</g>
<g>
</g>
<g>
</g>
</svg>
