<svg id="Capa_1" enable-background="new 0 0 512 512" height="512" viewBox="0 0 512 512" width="512" xmlns="http://www.w3.org/2000/svg"><g><circle cx="256" cy="256" fill="#dff6fd" r="256"/><path d="m355.43 20.029c76.166 44.354 127.368 126.878 127.368 221.37 0 141.385-114.615 256-256 256-35.263 0-68.86-7.132-99.43-20.029 37.798 22.011 81.739 34.63 128.632 34.63 141.385 0 256-114.615 256-256 0-106.121-64.573-197.159-156.57-235.971z" fill="#c8effe"/><path d="m436.285 279.734c1.029-7.857 5.663-15.601 5.663-23.734s-4.634-15.877-5.663-23.733c-1.052-8.037 1.408-16.713-.651-24.391-2.093-7.805-8.58-14.082-11.64-21.444-3.094-7.443-2.978-16.464-6.984-23.378-4.033-6.96-11.926-11.344-16.806-17.69-4.896-6.366-7.108-15.117-12.778-20.787s-14.421-7.882-20.787-12.778c-6.346-4.881-10.73-12.773-17.69-16.806-6.914-4.007-15.936-3.891-23.379-6.985-7.362-3.06-13.639-9.548-21.444-11.641-7.678-2.059-16.355.401-24.392-.651-7.857-1.029-15.601-5.662-23.734-5.662s-15.877 4.634-23.734 5.662c-1.681.22-3.39.282-5.111.268v360.034c1.722-.014 3.431.048 5.111.268 7.857 1.029 15.601 5.662 23.734 5.662s15.877-4.634 23.734-5.662c8.037-1.052 16.713 1.407 24.391-.651 7.805-2.093 14.082-8.58 21.444-11.64 7.443-3.094 16.464-2.978 23.378-6.984 6.96-4.033 11.344-11.926 17.69-16.806 6.366-4.896 15.116-7.108 20.786-12.778s7.883-14.421 12.778-20.787c4.881-6.346 12.773-10.729 16.807-17.69 4.007-6.914 3.891-15.936 6.985-23.379 3.06-7.362 9.548-13.639 11.641-21.444 2.059-7.68-.401-16.356.651-24.393z" fill="#ebebeb"/><path d="m245.869 92.371c0-.078 0-.156 0-.234.033-10.911-9.636-19.28-20.397-17.475-86.917 14.582-153.359 90.341-153.359 181.338 0 91.598 67.322 167.761 155.084 181.625 12.261 1.937 22.507-9.149 19.762-21.255-.343-1.512-.667-3.078-.968-4.702-7.254-39.082 14.302-41.065 14.302-80.815 0-39.747-14.423-39.747-14.423-79.495 0-39.746 14.423-39.746 14.423-79.493-.002-39.747-14.424-39.747-14.424-79.494z" fill="#c86d36"/><path d="m196.326 184.23h-30.592c-3.414 0-6.181-2.767-6.181-6.181v-30.592c0-3.414 2.767-6.181 6.181-6.181h30.592c3.414 0 6.181 2.767 6.181 6.181v30.592c0 3.414-2.767 6.181-6.181 6.181z" fill="#9e5528"/><path d="m175.163 260.585h30.592c3.414 0 6.181 2.767 6.181 6.181v30.592c0 3.414-2.767 6.181-6.181 6.181h-30.592c-3.414 0-6.181-2.767-6.181-6.181v-30.592c0-3.413 2.767-6.181 6.181-6.181z" fill="#fdb441"/><circle cx="130.175" cy="231.732" fill="#22b27f" r="15.453"/><circle cx="159.37" cy="355.271" fill="#f47c7c" r="15.453"/><path d="m436.285 279.734c1.029-7.857 5.663-15.601 5.663-23.734s-4.634-15.877-5.663-23.733c-1.052-8.037 1.408-16.713-.651-24.391-2.093-7.805-8.58-14.082-11.64-21.444-3.094-7.443-2.978-16.464-6.984-23.378-4.033-6.96-11.926-11.344-16.806-17.69-4.896-6.366-7.108-15.117-12.778-20.787s-14.421-7.882-20.787-12.778c-6.346-4.881-10.73-12.773-17.69-16.806-6.914-4.007-15.936-3.891-23.379-6.985-7.362-3.06-13.639-9.548-21.444-11.641-7.678-2.059-16.355.401-24.392-.651-7.857-1.029-15.601-5.662-23.734-5.662-5.479 0-10.782 2.102-16.061 3.789 14.83 4.738 21.728-.246 32.064 2.525 7.805 2.093 14.082 8.58 21.444 11.641 7.443 3.094 16.465 2.978 23.379 6.985 6.96 4.033 11.344 11.926 17.69 16.806 6.366 4.896 15.117 7.108 20.787 12.778s7.882 14.421 12.778 20.787c4.881 6.346 12.773 10.73 16.806 17.69 4.007 6.914 3.891 15.936 6.984 23.378 3.06 7.362 9.548 13.639 11.64 21.444 2.059 7.678-.401 16.355.651 24.391 1.029 7.857 5.663 15.601 5.663 23.733 0 8.133-4.634 15.877-5.663 23.734-1.052 8.037 1.408 16.713-.651 24.391-2.093 7.805-8.581 14.082-11.641 21.444-3.094 7.443-2.978 16.465-6.985 23.379-4.033 6.96-11.926 11.344-16.807 17.69-4.896 6.366-7.108 15.117-12.778 20.787s-14.421 7.882-20.786 12.778c-6.346 4.881-10.73 12.773-17.69 16.806-6.914 4.007-15.935 3.89-23.378 6.984-7.362 3.06-13.639 9.547-21.444 11.64-10.287 2.758-17.284-2.196-32.064 2.525 5.279 1.687 10.582 3.789 16.061 3.789 8.133 0 15.877-4.634 23.734-5.662 8.037-1.052 16.713 1.407 24.391-.651 7.805-2.093 14.082-8.58 21.444-11.64 7.443-3.094 16.464-2.978 23.378-6.984 6.96-4.033 11.344-11.926 17.69-16.806 6.366-4.896 15.116-7.108 20.786-12.778s7.883-14.421 12.778-20.787c4.881-6.346 12.773-10.729 16.807-17.69 4.007-6.914 3.891-15.936 6.985-23.379 3.06-7.362 9.548-13.639 11.641-21.444 2.06-7.68-.4-16.356.652-24.393z" fill="#cecece"/><path d="m245.869 251.358c0-39.746 14.423-39.746 14.423-79.493s-14.423-39.747-14.423-79.494c0-.078 0-.156.001-.234.033-10.911-9.636-19.28-20.397-17.475-2.754.462-5.486.987-8.198 1.57 2.738 27.288 13.815 31.597 13.815 66.431 0 39.746-14.423 39.746-14.423 79.493 0 39.748 14.423 39.748 14.423 79.495 0 39.749-21.555 41.733-14.302 80.815.301 1.624.625 3.19.968 4.702 2.745 12.106-7.501 23.192-19.762 21.255-32.081-5.068-61.425-18.469-85.754-37.897 28.039 35.12 68.649 59.784 114.955 67.099 12.261 1.937 22.507-9.149 19.762-21.255-.343-1.512-.667-3.078-.968-4.702-7.254-39.082 14.302-41.065 14.302-80.815 0-39.747-14.422-39.747-14.422-79.495z" fill="#ac5e2e"/><g fill="#cecece"><ellipse cx="340.125" cy="327.048" rx="13.392" ry="16.498"/><ellipse cx="368.385" cy="272.467" rx="13.392" ry="16.498"/><ellipse cx="309.064" cy="273.302" rx="13.392" ry="16.498"/><ellipse cx="297.383" cy="377.609" rx="13.392" ry="16.498"/></g></g></svg>