<svg width="1440" height="1024" viewBox="0 0 1440 1024" fill="none" xmlns="http://www.w3.org/2000/svg">
<g id="Desktop - 1">
<path id="bord" d="M492 594C633.385 594 748 479.385 748 338C748 196.615 633.385 82 492 82C350.615 82 236 196.615 236 338C236 479.385 350.615 594 492 594Z" fill="#F7F0E6"/>
<path id="schaduw" d="M494.823 198.07C493.376 194.213 489.02 192.22 485.197 193.757C447.713 208.829 412.568 231.479 382.196 261.851C351.824 292.223 329.174 327.368 314.102 364.852C312.565 368.674 314.557 373.031 318.415 374.478L585.519 474.642C591.431 476.859 597.204 471.086 594.987 465.174L494.823 198.07Z" fill="#EEE2D4"/>
<g id="sausBord">
<path id="Vector" d="M513.82 466.56C572.771 466.56 620.56 418.771 620.56 359.82C620.56 300.869 572.771 253.08 513.82 253.08C454.869 253.08 407.08 300.869 407.08 359.82C407.08 418.771 454.869 466.56 513.82 466.56Z" fill="#BE6C84"/>
<path id="Vector_2" d="M585.181 439.023L515.483 253.164C514.922 253.155 514.378 253.08 513.815 253.08C454.866 253.08 407.079 300.867 407.079 359.816C407.079 379.249 412.355 397.414 421.43 413.109L548.386 460.717C562.149 456.002 574.605 448.559 585.181 439.023Z" fill="#B45573"/>
</g>
<path id="taart" d="M513.581 183.173C512.134 179.316 507.778 177.323 503.955 178.86C466.471 193.932 431.326 216.582 400.954 246.954C370.582 277.326 347.932 312.471 332.86 349.955C331.323 353.777 333.315 358.134 337.173 359.581L604.277 459.745C610.189 461.962 615.963 456.189 613.745 450.277L513.581 183.173Z" fill="#FBE6A5"/>
<path id="schaduwKorst" d="M513.581 183.173C512.134 179.316 507.778 177.323 503.955 178.861C466.471 193.933 431.326 216.583 400.954 246.955C370.582 277.327 347.932 312.471 332.86 349.956C331.323 353.778 333.315 358.135 337.172 359.582L381.704 376.281L382.152 371.504C382.502 367.772 382.457 364.153 382.419 360.959C382.382 357.964 382.327 353.437 382.889 352.091C383.589 350.986 387.171 348.395 389.541 346.681C394.606 343.016 400.911 338.456 405.365 331.543C409.763 324.719 411.291 317.163 412.519 311.091C413.113 308.153 414.011 303.715 414.847 302.517C415.758 301.606 419.779 299.845 422.44 298.68C428.187 296.163 435.339 293.031 441.185 287.185C447.031 281.339 450.164 274.186 452.681 268.438C453.846 265.777 455.608 261.755 456.626 260.755C457.715 260.01 462.152 259.113 465.089 258.519C471.161 257.291 478.717 255.763 485.542 251.365C492.453 246.911 497.013 240.608 500.678 235.543L501.224 234.789C502.354 233.23 505.002 229.579 506.203 228.83C506.53 228.705 507.905 228.395 512.132 228.395L514.962 228.418L518.214 228.444C521.092 228.444 523.34 228.353 525.503 228.151L530.28 227.703L513.581 183.173Z" fill="#FFDC8C"/>
<path id="saus" d="M575.771 376.65C577.747 371.573 579.374 366.364 580.268 361.003L557.076 299.156C543.373 289.601 525.346 286.576 506.761 292.57C487.52 298.776 471.79 313.294 462.541 331.118C462.179 331.102 461.838 331.01 461.472 331.01C447.862 331.01 436.828 342.043 436.828 355.654C436.828 366.898 444.404 376.277 454.696 379.235C456.847 391.171 461.978 401.297 469.167 409.078L514.374 426.031C518.893 425.614 523.496 424.715 528.139 423.217C538.967 419.725 548.609 413.53 556.679 405.667C558.84 406.61 561.216 407.148 563.724 407.148C573.475 407.148 581.379 399.243 581.379 389.493C581.379 384.415 579.204 379.871 575.771 376.65Z" fill="#D79D8C"/>
<path id="korst" d="M513.581 183.173C512.134 179.316 507.778 177.323 503.955 178.861C466.471 193.933 431.326 216.583 400.954 246.955C370.582 277.327 347.932 312.471 332.86 349.956C331.323 353.778 333.315 358.135 337.172 359.582L364.573 369.857C365.373 361.324 363.407 351.547 367.092 344.208C371.688 335.054 384.9 330.707 390.524 321.98C396.063 313.384 394.543 299.558 401.085 291.46C407.496 283.524 421.323 282.08 428.7 274.702C436.078 267.324 437.522 253.496 445.459 247.085C453.556 240.545 467.381 242.066 475.976 236.526C480.339 233.715 483.607 229.006 486.929 224.425C490.251 219.845 493.626 215.393 498.202 213.095C505.541 209.41 515.321 211.374 523.854 210.574L513.581 183.173Z" fill="#D0A56C"/>
<g id="besjes">
<path id="Vector_3" d="M493.21 385.145C502.961 385.145 510.865 377.241 510.865 367.49C510.865 357.739 502.961 349.835 493.21 349.835C483.459 349.835 475.555 357.739 475.555 367.49C475.555 377.241 483.459 385.145 493.21 385.145Z" fill="#B45573"/>
<path id="Vector_4" d="M513.31 350.17C525.499 350.17 535.38 340.289 535.38 328.1C535.38 315.911 525.499 306.03 513.31 306.03C501.121 306.03 491.24 315.911 491.24 328.1C491.24 340.289 501.121 350.17 513.31 350.17Z" fill="#B45573"/>
<g id="Group">
<path id="Vector_5" d="M509.477 331.936C502.944 325.403 501.387 315.8 504.759 307.778C502.199 308.854 499.791 310.411 497.706 312.496C489.088 321.115 489.088 335.088 497.706 343.706C506.325 352.325 520.298 352.325 528.917 343.706C531.002 341.621 532.558 339.214 533.634 336.654C525.611 340.026 516.01 338.47 509.477 331.936Z" fill="#A04B69"/>
<path id="Vector_6" d="M490.534 372.396C485.037 366.899 483.084 359.231 484.599 352.155C483.221 352.929 481.895 353.827 480.722 355C473.828 361.895 473.828 373.073 480.722 379.968C487.617 386.863 498.796 386.863 505.69 379.968C506.05 379.608 506.312 379.194 506.635 378.812C500.822 378.943 494.97 376.832 490.534 372.396Z" fill="#A04B69"/>
</g>
<path id="Vector_7" d="M535.96 385.145C545.711 385.145 553.615 377.241 553.615 367.49C553.615 357.739 545.711 349.835 535.96 349.835C526.209 349.835 518.305 357.739 518.305 367.49C518.305 377.241 526.209 385.145 535.96 385.145Z" fill="#B45573"/>
<path id="Vector_8" d="M533.293 372.396C527.796 366.899 525.843 359.231 527.358 352.155C525.98 352.929 524.654 353.827 523.481 355C516.587 361.895 516.587 373.073 523.481 379.968C530.376 386.863 541.555 386.863 548.449 379.968C548.809 379.608 549.071 379.194 549.393 378.812C543.581 378.943 537.728 376.832 533.293 372.396Z" fill="#A04B69"/>
</g>
</g>
</svg>
