<svg id="Capa_1" enable-background="new 0 0 512 512" height="512" viewBox="0 0 512 512" width="512" xmlns="http://www.w3.org/2000/svg"><g><g><circle cx="256" cy="256" fill="#ecf4ff" r="256"/><path d="m256 0c-5.19 0-10.339.173-15.453.477 134.188 7.992 240.548 119.328 240.548 255.523s-106.36 247.531-240.547 255.523c5.113.304 10.262.477 15.452.477 141.385 0 256-114.615 256-256s-114.615-256-256-256z" fill="#ddeafb"/><circle cx="256" cy="256" fill="#cbe2ff" r="186.794"/><path d="m256 69.206c-5.204 0-10.356.223-15.453.64 95.933 7.858 171.341 88.195 171.341 186.154s-75.408 178.296-171.341 186.153c5.097.418 10.248.641 15.453.641 103.163 0 186.794-83.63 186.794-186.794s-83.631-186.794-186.794-186.794z" fill="#bed8fb"/></g><path d="m273.894 286.695c-1.369 11.117-12.388 18.253-23.142 15.121-60.551-17.63-101.122-77.036-93.166-141.652 7.956-64.615 61.727-112.405 124.746-114.82 11.193-.429 20.151 9.167 18.783 20.284z" fill="#f2d59c"/><g><circle cx="173.151" cy="392.809" fill="#ffe07d" r="64.348"/><path d="m173.151 328.461c-5.328 0-10.501.66-15.453 1.881 28.072 6.922 48.895 32.258 48.895 62.467s-20.823 55.545-48.895 62.467c4.951 1.221 10.124 1.881 15.453 1.881 35.538 0 64.348-28.809 64.348-64.348-.001-35.538-28.81-64.348-64.348-64.348z" fill="#ffd064"/><path d="m173.151 464.883c-39.742 0-72.074-32.332-72.074-72.074 0-39.741 32.332-72.073 72.074-72.073 39.741 0 72.073 32.332 72.073 72.073 0 39.742-32.332 72.074-72.073 72.074zm0-128.695c-31.221 0-56.622 25.4-56.622 56.621s25.4 56.622 56.622 56.622c31.22 0 56.621-25.4 56.621-56.622 0-31.22-25.401-56.621-56.621-56.621z" fill="#f7f6f7"/></g><g><g><path d="m359.402 313.678c-1.36 0-2.736-.358-3.985-1.113-3.654-2.204-4.828-6.954-2.623-10.607l18.718-31.016c2.204-3.654 6.956-4.829 10.607-2.623 3.654 2.204 4.828 6.954 2.623 10.607l-18.718 31.016c-1.451 2.405-4.004 3.736-6.622 3.736z" fill="#95d6a4"/></g><path d="m268.635 378.214c-3.033-1.913-2.161-6.523 1.339-7.3 20.627-4.578 31.408-13.363 37.505-20.836 15.481-18.976 9.229-39.875 27.101-51.319 8.764-5.611 22.035-8.122 30.561-2.306 13.192 8.999 8.594 33.545 8.073 36.327-5.14 27.437-32.283 55.33-65.735 56.509-16.685.587-30.221-5.638-38.844-11.075z" fill="#b3e59f"/></g><g><path d="m278.111 65.628c1.023-8.305-3.72-15.759-10.85-18.821-56.335 8.788-102.361 53.962-109.675 113.357v.001c-7.62 61.886 29.278 118.988 85.606 139.191 4.086-2.8 7.033-7.258 7.699-12.66z" fill="#ecc372"/><path d="m219.985 286.695c-1.369 11.117-12.388 18.253-23.142 15.121-60.551-17.63-101.122-77.036-93.166-141.652 7.956-64.615 61.727-112.405 124.746-114.82 11.193-.429 20.151 9.167 18.783 20.284z" fill="#f2d59c"/><g fill="#c6855b"><circle cx="207.687" cy="79.57" r="7.726"/><circle cx="161.329" cy="110.475" r="7.726"/><circle cx="182.739" cy="151.249" r="7.726"/><circle cx="138.15" cy="181.67" r="7.726"/><circle cx="180.877" cy="210.918" r="7.726"/><circle cx="190.466" cy="265.002" r="7.726"/></g></g><g><g><path d="m360.823 88.002c0-2.991 2.54-5.342 5.525-5.144 42.9 2.842 76.818 38.54 76.818 82.16s-33.917 79.318-76.818 82.16c-2.985.198-5.525-2.153-5.525-5.144z" fill="#fdf9ce"/><path d="m366.014 254.915c-3.267 0-6.449-1.246-8.842-3.486-2.59-2.425-4.075-5.85-4.075-9.396v-154.031c0-3.546 1.486-6.972 4.075-9.396 2.598-2.433 6.128-3.695 9.685-3.458 47.124 3.122 84.035 42.598 84.035 89.87s-36.911 86.747-84.033 89.869c-.283.019-.564.028-.845.028zm2.535-164.119v148.444c37.724-3.881 66.89-35.97 66.89-74.221.001-38.253-29.163-70.342-66.89-74.223z" fill="#ffe07d"/></g><g><path d="m443.166 172.744h-82.343c-4.268 0-7.726-3.459-7.726-7.726s3.459-7.726 7.726-7.726h82.343c4.268 0 7.726 3.459 7.726 7.726s-3.458 7.726-7.726 7.726z" fill="#ffe07d"/></g><g><path d="m415.498 234.308c-2.132 0-4.254-.877-5.781-2.596l-54.671-61.563c-2.833-3.191-2.543-8.074.647-10.908 3.192-2.831 8.075-2.541 10.908.647l54.671 61.563c2.833 3.191 2.543 8.074-.647 10.908-1.471 1.306-3.303 1.949-5.127 1.949z" fill="#ffe07d"/></g><g><path d="m360.821 172.744c-1.825 0-3.656-.642-5.128-1.949-3.19-2.834-3.48-7.717-.647-10.908l54.671-61.564c2.834-3.189 7.716-3.481 10.908-.647 3.19 2.834 3.48 7.717.647 10.908l-54.671 61.564c-1.527 1.719-3.648 2.596-5.78 2.596z" fill="#ffe07d"/></g></g></g></svg>