<?xml version="1.0" encoding="iso-8859-1"?>
<!-- Generator: Adobe Illustrator 19.0.0, SVG Export Plug-In . SVG Version: 6.00 Build 0)  -->
<svg version="1.1" id="Capa_1" xmlns="http://www.w3.org/2000/svg" xmlns:xlink="http://www.w3.org/1999/xlink" x="0px" y="0px"
	 viewBox="0 0 512 512" style="enable-background:new 0 0 512 512;" xml:space="preserve">
<circle style="fill:#EBC9A0;" cx="256" cy="256" r="256"/>
<g>
	<circle style="fill:#D7AF8C;" cx="147.17" cy="208.32" r="97.1"/>
	<circle style="fill:#D7AF8C;" cx="341.38" cy="208.32" r="97.1"/>
	<circle style="fill:#D7AF8C;" cx="244.25" cy="376.6" r="97.1"/>
</g>
<path style="fill:#E7E185;" d="M212.598,82.597l81.311,34.368c5.144-22.048-5.107-44.746-25.383-53.317
	S224.826,63.544,212.598,82.597z"/>
<path style="fill:#C9E66E;" d="M293.917,125.793c-0.664,0-1.336-0.073-2.017-0.233c-4.75-1.108-7.698-5.853-6.586-10.603
	c4.259-18.263-4.241-36.422-20.224-43.177c-15.983-6.746-34.931-0.203-45.06,15.586c-2.647,4.099-8.103,5.289-12.198,2.664
	c-4.103-2.634-5.293-8.095-2.664-12.198c14.784-23.043,42.897-32.431,66.802-22.31c23.914,10.108,36.759,36.793,30.534,63.453
	C301.555,123.043,297.925,125.793,293.917,125.793z"/>
<path style="fill:#E7E185;" d="M378.502,319.67l35.503,80.822c18.881-12.493,27.017-36.033,18.164-56.188
	C423.316,324.15,400.476,314.218,378.502,319.67z"/>
<path style="fill:#C9E66E;" d="M407.948,406.915c-0.483-0.456-0.921-0.971-1.306-1.555c-2.692-4.067-1.576-9.542,2.494-12.231
	c15.638-10.351,21.93-29.388,14.95-45.274c-6.985-15.88-25.252-24.136-43.458-19.615c-4.739,1.162-9.522-1.721-10.696-6.441
	c-1.174-4.732,1.712-9.519,6.441-10.696c26.572-6.597,53.453,5.885,63.88,29.658c10.441,23.77,1.452,51.989-21.38,67.093
	C415.389,410.161,410.862,409.668,407.948,406.915z"/>
<path style="fill:#E7E185;" d="M123.77,291.304l-44.294,76.359c21.228,7.869,45.034,0.545,56.079-18.496
	S141.139,305.825,123.77,291.304z"/>
<path style="fill:#C9E66E;" d="M70.717,366.563c0.083-0.659,0.24-1.316,0.484-1.972c1.695-4.574,6.773-6.903,11.346-5.204
	c17.585,6.515,36.667,0.36,45.372-14.65c8.697-15.011,4.582-34.63-9.812-46.659c-3.735-3.14-4.231-8.703-1.113-12.436
	c3.127-3.741,8.695-4.236,12.436-1.113c21.007,17.558,26.795,46.625,13.757,69.072c-13.027,22.457-41.113,31.854-66.781,22.336
	C72.487,374.486,70.214,370.54,70.717,366.563z"/>
<circle style="fill:#FBE6A5;" cx="158.9" cy="196.6" r="97.1"/>
<path style="fill:#FDE185;" d="M228.386,238.816c14.191-33.624-5.417-79.783-43.794-103.1
	c-38.378-23.317-80.993-14.961-95.184,18.663s5.417,79.783,43.794,103.1C171.579,280.796,214.195,272.44,228.386,238.816z"/>
<path style="fill:#C9E66E;" d="M197.095,214.764c10.83-21.019,2.431-47.104-18.759-58.262c-21.19-11.158-47.148-3.164-57.978,17.855
	s-2.431,47.104,18.759,58.262C160.308,243.777,186.265,235.783,197.095,214.764z"/>
<path style="fill:#FF6464;" d="M106.301,172.207c-3.471-2.659-8.508,0.351-7.691,4.646c4.415,23.206,16.917,44.869,37.053,60.292
	s44.308,21.85,67.863,20.068c4.36-0.33,5.953-5.977,2.482-8.636L106.301,172.207z"/>
<path style="fill:#D75050;" d="M203.167,246.401c-20.325-0.458-40.626-7.028-57.941-20.29
	c-17.315-13.262-28.945-31.151-34.682-50.655l-4.243-3.25c-3.471-2.658-8.508,0.351-7.691,4.647
	c4.415,23.206,16.917,44.87,37.053,60.293c20.136,15.422,44.308,21.85,67.863,20.067c4.36-0.33,5.954-5.977,2.483-8.636
	L203.167,246.401z"/>
<path style="fill:#FFD264;" d="M124.747,136.507c-1.962-1.895-5.35-0.453-5.187,2.269c1.458,24.337,11.87,48.556,31.184,67.212
	s43.88,28.222,68.253,28.836c2.726,0.069,4.05-3.368,2.088-5.262L124.747,136.507z"/>
<path style="fill:#FFBE64;" d="M216.17,224.814c-20.161-3.036-39.825-12.163-55.862-27.652
	c-16.037-15.49-25.838-34.827-29.572-54.87l-5.989-5.785c-1.961-1.894-5.35-0.453-5.186,2.27
	c1.458,24.337,11.87,48.555,31.184,67.212c19.315,18.656,43.88,28.222,68.253,28.836c2.726,0.068,4.05-3.367,2.088-5.262
	L216.17,224.814z"/>
<g>
	<path style="fill:#F7F0E6;" d="M170.716,181.108c-2.922,0-5.888-0.496-8.793-1.534c-13.552-4.866-20.621-19.849-15.759-33.405
		c1.647-4.591,6.707-6.974,11.293-5.328c4.586,1.647,6.974,6.703,5.328,11.293c-1.578,4.388,0.716,9.246,5.103,10.819
		c4.414,1.595,9.259-0.72,10.819-5.103c1.647-4.591,6.716-6.987,11.293-5.328c4.586,1.651,6.974,6.703,5.328,11.293
		C191.509,174.461,181.431,181.108,170.716,181.108z"/>
	<path style="fill:#F7F0E6;" d="M124.19,267.841c-2.172,0-4.345-0.793-6.043-2.397c-10.491-9.862-11.017-26.418-1.155-36.909
		c4.767-5.086,11.241-8.009,18.216-8.224c6.853-0.336,13.612,2.289,18.698,7.069c3.552,3.336,3.724,8.922,0.388,12.478
		c-3.328,3.547-8.94,3.724-12.474,0.384c-1.647-1.547-3.871-2.28-6.06-2.289c-2.259,0.073-4.353,1.022-5.897,2.668
		c-3.198,3.397-3.026,8.763,0.371,11.961c3.552,3.336,3.724,8.922,0.388,12.478C128.888,266.905,126.543,267.841,124.19,267.841z"/>
</g>
<path style="fill:#ADDF6E;" d="M147.5,208.44c-3.879,0-7.44-2.582-8.509-6.509c-1.284-4.703,1.491-9.556,6.198-10.841l9.862-2.69
	c4.664-1.254,9.552,1.483,10.836,6.194c1.284,4.703-1.491,9.556-6.198,10.841l-9.862,2.69
	C149.052,208.336,148.276,208.44,147.5,208.44z"/>
<g>
	<path style="fill:#C9E66E;" d="M214.017,195.582c-4.733,0-8.655-3.759-8.81-8.53l-0.233-6.871
		c-0.172-4.871,3.647-8.957,8.517-9.121c4.914-0.142,8.966,3.651,9.121,8.526l0.233,6.871c0.172,4.871-3.647,8.957-8.517,9.121
		C214.224,195.582,214.121,195.582,214.017,195.582z"/>
	<path style="fill:#C9E66E;" d="M96.882,216.443c-3.121,0-6.138-1.651-7.741-4.573c-2.353-4.272-0.793-9.642,3.483-11.991
		l4.931-2.711c4.259-2.349,9.638-0.784,11.983,3.483c2.353,4.272,0.793,9.642-3.483,11.991l-4.931,2.711
		C99.779,216.093,98.322,216.443,96.882,216.443z"/>
	<path style="fill:#C9E66E;" d="M172.776,144.177c-3.293,0-6.457-1.849-7.974-5.022l-1.121-2.345
		c-2.103-4.397-0.241-9.668,4.155-11.772c4.405-2.112,9.664-0.246,11.776,4.159l1.121,2.345c2.103,4.397,0.241,9.668-4.155,11.772
		C175.345,143.901,174.052,144.177,172.776,144.177z"/>
</g>
<circle style="fill:#FBE6A5;" cx="353.1" cy="196.6" r="97.1"/>
<path style="fill:#FDE185;" d="M427.62,164.065c-19.331-30.955-68.365-41.484-109.519-23.517
	c-41.155,17.967-58.845,57.627-39.514,88.583s68.365,41.484,109.519,23.517C429.26,234.68,446.951,195.021,427.62,164.065z"/>
<path style="fill:#C9E66E;" d="M389.943,175.813c-10.957-20.953-37.123-29.096-58.443-18.188
	c-21.32,10.908-29.72,36.737-18.763,57.69s37.123,29.096,58.443,18.188S400.9,196.766,389.943,175.813z"/>
<path style="fill:#FF6464;" d="M302.888,225.574c-4.172,1.309-4.609,7.16-0.626,8.964c21.519,9.744,46.43,11.987,70.631,4.395
	c24.201-7.592,43.368-23.661,55.466-43.95c2.239-3.755-1.462-8.309-5.634-7L302.888,225.574z"/>
<path style="fill:#D75050;" d="M419.31,189.054c-12.071,16.358-29.127,29.18-49.937,35.708c-20.81,6.528-42.133,5.745-61.385-0.788
	l-5.1,1.6c-4.172,1.309-4.609,7.16-0.626,8.964c21.519,9.744,46.43,11.987,70.631,4.395s43.368-23.661,55.465-43.95
	c2.239-3.755-1.462-8.309-5.634-7L419.31,189.054z"/>
<path style="fill:#FFD264;" d="M284.308,189.944c-2.678,0.514-3.449,4.115-1.129,5.548c20.742,12.813,46.54,18.236,72.913,13.177
	c26.373-5.059,48.333-19.644,62.861-39.223c1.625-2.19-0.423-5.25-3.102-4.736L284.308,189.944z"/>
<path style="fill:#FFBE64;" d="M409.139,165.997c-14.085,14.741-32.866,25.57-54.762,29.771c-21.897,4.2-43.351,1.089-61.891-7.393
	l-8.178,1.569c-2.678,0.514-3.449,4.115-1.128,5.548c20.742,12.813,46.54,18.236,72.913,13.177s48.333-19.644,62.861-39.223
	c1.625-2.19-0.423-5.25-3.102-4.736L409.139,165.997z"/>
<g>
	<path style="fill:#F7F0E6;" d="M347.237,178.018c-1.682,2.39-3.794,4.53-6.315,6.308c-11.779,8.282-28.1,5.441-36.388-6.337
		c-2.807-3.988-1.844-9.499,2.142-12.302c3.986-2.803,9.495-1.846,12.302,2.142c2.681,3.815,7.973,4.736,11.785,2.053
		c3.844-2.692,4.74-7.986,2.053-11.785c-2.807-3.988-1.849-9.513,2.142-12.302c3.989-2.801,9.495-1.846,12.302,2.142
		C353.768,157.188,353.404,169.255,347.237,178.018z"/>
	<path style="fill:#F7F0E6;" d="M391.393,265.981c-1.25,1.777-3.149,3.097-5.438,3.563c-14.103,2.904-27.945-6.193-30.85-20.296
		c-1.416-6.826-0.08-13.802,3.757-19.63c3.669-5.798,9.705-9.815,16.542-11.224c4.772-0.985,9.44,2.089,10.428,6.864
		c0.986,4.763-2.099,9.454-6.865,10.422c-2.213,0.456-4.092,1.853-5.359,3.639c-1.24,1.889-1.67,4.148-1.211,6.358
		c0.937,4.57,5.425,7.518,9.995,6.58c4.772-0.985,9.44,2.089,10.428,6.864C393.332,261.6,392.748,264.056,391.393,265.981z"/>
</g>
<path style="fill:#ADDF6E;" d="M356.229,212.733c-2.232,3.173-6.393,4.598-10.219,3.213c-4.585-1.656-6.957-6.719-5.298-11.308
	l3.476-9.613c1.658-4.536,6.71-6.958,11.302-5.297c4.585,1.656,6.957,6.719,5.298,11.308l-3.476,9.613
	C357.038,211.404,356.676,212.098,356.229,212.733z"/>
<g>
	<path style="fill:#C9E66E;" d="M383.994,150.935c-2.724,3.87-8.055,4.915-12.046,2.296l-5.753-3.764
		c-4.083-2.662-5.227-8.137-2.557-12.214c2.712-4.1,8.145-5.231,12.221-2.552l5.753,3.764c4.083,2.662,5.226,8.137,2.557,12.214
		C384.113,150.766,384.054,150.85,383.994,150.935z"/>
	<path style="fill:#C9E66E;" d="M333.644,258.734c-1.796,2.552-4.882,4.07-8.195,3.699c-4.848-0.534-8.342-4.9-7.802-9.749
		l0.62-5.593c0.53-4.835,4.905-8.333,9.744-7.795c4.848,0.534,8.342,4.9,7.802,9.749l-0.62,5.593
		C335.026,256.164,334.473,257.557,333.644,258.734z"/>
	<path style="fill:#C9E66E;" d="M318.221,155.079c-1.895,2.693-5.228,4.216-8.696,3.632l-2.563-0.433
		c-4.806-0.81-8.046-5.366-7.236-10.173c0.808-4.818,5.36-8.045,10.179-7.237l2.563,0.433c4.806,0.81,8.046,5.366,7.236,10.173
		C319.473,152.82,318.955,154.036,318.221,155.079z"/>
</g>
<circle style="fill:#FBE6A5;" cx="255.97" cy="364.88" r="97.1"/>
<path style="fill:#FDE185;" d="M310.142,425.518c23.374-28.028,18.071-77.898-11.845-111.387
	c-29.916-33.49-73.116-37.917-96.491-9.888s-18.071,77.898,11.845,111.387S286.767,453.546,310.142,425.518z"/>
<path style="fill:#C9E66E;" d="M287.22,393.39c16.486-16.95,16.054-44.351-0.964-61.2c-17.018-16.85-44.179-16.768-60.665,0.183
	c-16.486,16.95-16.054,44.351,0.964,61.2C243.573,410.423,270.734,410.341,287.22,393.39z"/>
<path style="fill:#FF6464;" d="M212.771,326.219c-2.545-3.555-8.241-2.144-8.711,2.203c-2.54,23.485,3.106,47.852,17.872,68.474
	c14.767,20.622,36.016,33.815,59.068,38.975c4.267,0.955,7.437-3.983,4.892-7.537L212.771,326.219z"/>
<path style="fill:#D75050;" d="M283.807,425.423c-19.309-6.362-36.814-18.563-49.512-36.296s-18.61-38.234-18.413-58.564
	l-3.112-4.346c-2.545-3.555-8.241-2.144-8.711,2.203c-2.54,23.486,3.105,47.852,17.872,68.474
	c14.767,20.621,36.016,33.815,59.068,38.975c4.267,0.955,7.437-3.983,4.892-7.537L283.807,425.423z"/>
<path style="fill:#FFD264;" d="M240.821,297.445c-1.324-2.384-4.986-1.992-5.623,0.659c-5.698,23.706-2.797,49.907,10.242,73.383
	c13.039,23.476,33.75,39.786,56.886,47.476c2.588,0.86,4.855-2.041,3.531-4.425L240.821,297.445z"/>
<path style="fill:#FFBE64;" d="M302.538,408.563c-18.401-8.78-34.552-23.242-45.378-42.733
	c-10.826-19.492-14.566-40.845-12.296-61.106l-4.043-7.279c-1.324-2.384-4.986-1.992-5.623,0.66
	c-5.698,23.705-2.797,49.907,10.242,73.383c13.039,23.476,33.75,39.785,56.885,47.476c2.588,0.86,4.856-2.041,3.531-4.425
	L302.538,408.563z"/>
<g>
	<path style="fill:#F7F0E6;" d="M271.794,353.507c-2.796-0.852-5.488-2.19-7.964-4.031c-11.545-8.605-13.94-24.997-5.339-36.548
		c2.913-3.911,8.448-4.717,12.356-1.805s4.718,8.444,1.805,12.356c-2.788,3.738-2.01,9.053,1.729,11.837
		c3.757,2.812,9.066,2.01,11.837-1.729c2.913-3.911,8.46-4.727,12.356-1.805c3.906,2.916,4.718,8.444,1.805,12.356
		C293.622,353.209,282.045,356.63,271.794,353.507z"/>
	<path style="fill:#F7F0E6;" d="M202.01,422.915c-2.078-0.633-3.925-2.025-5.082-4.054c-7.162-12.492-2.839-28.482,9.652-35.644
		c6.043-3.476,13.087-4.385,19.822-2.558c6.654,1.676,12.354,6.157,15.826,12.212c2.425,4.227,0.962,9.62-3.266,12.05
		c-4.217,2.424-9.637,0.957-12.044-3.269c-1.124-1.96-3.038-3.309-5.13-3.956c-2.182-0.588-4.462-0.292-6.418,0.834
		c-4.049,2.317-5.448,7.501-3.131,11.55c2.425,4.227,0.962,9.62-3.266,12.05C206.777,423.389,204.261,423.6,202.01,422.915z"/>
</g>
<path style="fill:#ADDF6E;" d="M241.621,372.886c-3.711-1.131-6.364-4.638-6.242-8.706c0.142-4.873,4.212-8.707,9.089-8.563
	l10.218,0.301c4.827,0.159,8.705,4.202,8.561,9.083c-0.142,4.873-4.212,8.707-9.089,8.563l-10.218-0.301
	C243.135,373.24,242.363,373.112,241.621,372.886z"/>
<g>
	<path style="fill:#C9E66E;" d="M308.998,379.973c-4.527-1.379-7.184-6.118-5.942-10.728l1.78-6.64
		c1.255-4.709,6.099-7.505,10.806-6.242c4.742,1.296,7.512,6.105,6.24,10.814l-1.78,6.64c-1.255,4.709-6.099,7.505-10.806,6.242
		C309.196,380.033,309.097,380.003,308.998,379.973z"/>
	<path style="fill:#C9E66E;" d="M190.868,365.789c-2.985-0.91-5.39-3.368-6.072-6.631c-1.006-4.772,2.052-9.455,6.826-10.456
		l5.507-1.156c4.758-1.006,9.448,2.059,10.447,6.824c1.006,4.772-2.052,9.455-6.826,10.456l-5.507,1.156
		C193.741,366.299,192.245,366.209,190.868,365.789z"/>
	<path style="fill:#C9E66E;" d="M284.529,318.78c-3.15-0.96-5.638-3.651-6.164-7.128l-0.389-2.57
		c-0.731-4.819,2.587-9.319,7.406-10.049c4.829-0.736,9.316,2.581,10.052,7.411l0.389,2.57c0.731,4.819-2.587,9.319-7.406,10.049
		C287.067,319.265,285.749,319.152,284.529,318.78z"/>
</g>
<g>
</g>
<g>
</g>
<g>
</g>
<g>
</g>
<g>
</g>
<g>
</g>
<g>
</g>
<g>
</g>
<g>
</g>
<g>
</g>
<g>
</g>
<g>
</g>
<g>
</g>
<g>
</g>
<g>
</g>
</svg>
